<?xml version="1.0" encoding="UTF-8"?>
<!DOCTYPE svg PUBLIC "-//W3C//DTD SVG 1.1//EN" "http://www.w3.org/Graphics/SVG/1.1/DTD/svg11.dtd">
<!-- Creator: CorelDRAW X7 -->
<svg xmlns="http://www.w3.org/2000/svg" xml:space="preserve" width="210mm" height="297mm" version="1.1" style="shape-rendering:geometricPrecision; text-rendering:geometricPrecision; image-rendering:optimizeQuality; fill-rule:evenodd; clip-rule:evenodd"
viewBox="0 0 21000 29700"
 xmlns:xlink="http://www.w3.org/1999/xlink">
 <defs>
  <style type="text/css">
   <![CDATA[
    .str7 {stroke:#2B2A29;stroke-width:7.62}
    .str0 {stroke:#2B2A29;stroke-width:9;stroke-linejoin:bevel}
    .str6 {stroke:#2B2A29;stroke-width:50;stroke-linejoin:bevel}
    .str1 {stroke:#2B2A29;stroke-width:40;stroke-linejoin:bevel}
    .str5 {stroke:#2B2A29;stroke-width:34.99;stroke-linejoin:bevel}
    .str4 {stroke:#2B2A29;stroke-width:35;stroke-linejoin:bevel}
    .str2 {stroke:#2B2A29;stroke-width:20;stroke-linejoin:bevel}
    .str3 {stroke:#2B2A29;stroke-width:7.62;stroke-linejoin:bevel}
    .str8 {stroke:black;stroke-width:34.99;stroke-linecap:round;stroke-linejoin:round}
    .fil1 {fill:none}
    .fil2 {fill:none;fill-rule:nonzero}
    .fil0 {fill:#2B2A29}
   ]]>
  </style>
 </defs>
 <g id="Слой_x0020_1">
  <metadata id="CorelCorpID_0Corel-Layer"/>
  <path class="fil0 str0" d="M5676 9069c0,0 -376,-373 -376,-373 0,0 -376,373 -376,373 -4,4 -9,5 -14,4 -5,-1 -9,-5 -10,-10 -2,-5 0,-11 3,-14 0,0 397,-394 397,-394 0,0 397,394 397,394 3,3 5,9 3,14 -1,5 -5,9 -10,10 -5,1 -10,0 -14,-4z"/>
  <path class="fil0 str0" d="M5042 9129c0,0 258,-256 258,-256 0,0 254,252 254,252 0,0 0,200 0,200 0,0 -541,0 -541,0 -5,0 -10,3 -13,7 -2,5 -2,10 0,15 3,4 8,7 13,7 0,0 570,0 570,0 0,0 0,-241 0,-241 0,0 -283,-281 -283,-281 0,0 -279,277 -279,277 -4,3 -5,9 -4,14 2,5 6,9 11,10 5,1 10,0 14,-4z"/>
  <path class="fil0 str0" d="M15611 9193c2,15 -2,31 -10,43 -13,21 -31,37 -53,47 -13,6 -28,11 -43,13 -17,2 -33,0 -49,-7 -13,-6 -24,-17 -29,-31 -4,-13 -4,-27 1,-40 10,-22 27,-40 48,-52 13,-8 27,-14 43,-17 16,-4 33,-4 49,1 5,1 10,2 14,4 0,0 0,-378 0,-378 0,0 394,-63 394,-63 0,0 0,422 0,422 1,15 -2,30 -10,43 -13,20 -31,36 -53,46 -13,7 -28,11 -43,13 -17,2 -33,0 -49,-6 -13,-6 -24,-17 -29,-31 -5,-13 -4,-27 1,-40 10,-22 26,-41 47,-53 14,-7 28,-13 43,-17 17,-3 34,-3 50,1 5,1 9,3 14,5 0,0 0,-349 0,-349 0,0 -336,54 -336,54 0,0 0,392 0,392z"/>
  <path class="fil0 str0" d="M13204 9199c0,0 297,0 297,0 0,0 0,-489 0,-489 0,0 -802,0 -802,0 0,0 0,489 0,489 0,0 297,0 297,0 5,0 10,-2 13,-7 2,-4 2,-10 0,-14 -3,-5 -8,-8 -13,-8 0,0 -268,0 -268,0 0,0 0,-431 0,-431 0,0 744,0 744,0 0,0 0,431 0,431 0,0 -268,0 -268,0 -5,0 -10,3 -13,8 -2,4 -2,10 0,14 3,5 8,7 13,7z"/>
  <path class="fil0 str0" d="M13086 9211c0,0 0,59 0,59 0,0 -242,0 -242,0 -5,0 -10,3 -13,8 -2,4 -2,10 0,14 3,5 8,7 13,7 0,0 512,0 512,0 5,0 10,-2 13,-7 2,-4 2,-10 0,-14 -3,-5 -8,-8 -13,-8 0,0 -242,0 -242,0 0,0 0,-59 0,-59 0,-5 -2,-10 -7,-12 -4,-3 -10,-3 -14,0 -5,2 -7,7 -7,12z"/>
  <path class="fil0 str0" d="M7959 9028c0,0 47,42 47,42 0,0 -43,55 -43,55 0,0 43,53 43,53 0,0 -42,47 -42,47 0,0 41,44 41,44 0,0 -49,70 -49,70 0,0 -56,69 -56,69 0,0 -75,-71 -75,-71 0,0 0,-363 0,-363 -63,-27 -108,-85 -118,-154 0,-5 2,-10 6,-13 4,-3 10,-4 14,-2 5,2 8,6 9,12 9,65 55,118 118,136 0,0 0,371 0,371 0,0 44,41 44,41 0,0 35,-43 35,-43 0,0 35,-50 35,-50 0,0 -43,-47 -43,-47 0,0 43,-48 43,-48 0,0 -42,-51 -42,-51 0,0 41,-53 41,-53 0,0 -27,-24 -27,-24 -4,-3 -6,-8 -5,-13 1,-5 5,-9 10,-11 5,-2 10,-1 14,3z"/>
  <path class="fil0 str0" d="M7949 8982c-5,1 -11,0 -14,-4 -4,-4 -6,-9 -4,-14 1,-5 5,-9 10,-10 77,-21 128,-94 121,-174 -7,-80 -71,-142 -151,-148 -80,-7 -152,45 -171,123 -2,5 -5,9 -10,10 -5,2 -11,0 -14,-3 -4,-4 -6,-9 -4,-14 22,-92 108,-153 202,-146 94,7 169,81 178,175 9,94 -52,180 -143,205z"/>
  <g id="_278567008">
   <path class="fil0 str0" d="M10556 9199c0,0 229,0 229,0 0,0 0,-16 0,-16 -36,-4 -68,-27 -84,-59 -22,-36 -36,-76 -39,-118 -3,-44 -5,-89 -5,-133 5,-65 -21,-128 -71,-170 -17,-11 -36,-19 -56,-22 4,-22 -9,-43 -30,-49 -21,6 -34,27 -30,49 -20,3 -39,11 -56,22 -50,42 -76,105 -71,170 0,44 -2,89 -5,133 -3,42 -17,82 -39,118 -16,32 -48,55 -84,59 0,0 0,16 0,16 0,0 229,0 229,0 5,0 9,2 11,6 2,4 2,9 0,13 -2,4 -6,7 -11,7 0,0 -255,0 -255,0 0,0 0,-69 0,-69 36,7 72,-12 87,-45 21,-32 33,-69 36,-107 3,-43 5,-87 5,-130 -5,-73 25,-144 81,-192 14,-9 30,-17 47,-22 5,-28 27,-49 55,-55 28,6 50,27 55,55 17,5 33,13 47,22 56,48 86,119 81,192 0,43 2,87 5,130 3,38 15,75 36,107 15,33 51,52 87,45 0,0 0,69 0,69 0,0 -255,0 -255,0 -5,0 -9,-3 -11,-7 -2,-4 -2,-9 0,-13 2,-4 6,-6 11,-6z"/>
   <path class="fil0 str0" d="M10388 9282c-2,-4 -2,-9 0,-13 2,-4 6,-7 11,-7 4,0 9,2 11,6 20,31 54,50 90,50 37,0 70,-19 90,-50 2,-4 7,-6 11,-6 5,0 9,3 11,7 2,4 2,9 0,13 -24,39 -66,62 -112,62 -45,0 -88,-24 -112,-62z"/>
  </g>
  <g id="_278566720">
   <path class="fil0 str0" d="M6463 8840c4,-3 7,-8 7,-13 -1,-5 -4,-10 -9,-12 -4,-3 -10,-2 -14,1 -101,67 -146,193 -111,309 35,116 142,196 264,196 122,0 229,-80 264,-196 35,-116 -10,-242 -111,-309 -4,-3 -10,-4 -14,-1 -5,2 -8,7 -9,12 0,5 3,10 7,13 91,60 131,173 100,277 -32,104 -128,175 -237,175 -109,1 -205,-71 -237,-175 -31,-104 9,-217 100,-277z"/>
   <path class="fil0 str0" d="M6585 9045c0,0 0,-342 0,-342 0,-6 3,-10 8,-13 4,-3 10,-3 14,0 5,3 7,7 7,13 0,0 0,342 0,342 0,5 -2,10 -7,13 -4,2 -10,2 -14,0 -5,-3 -8,-8 -8,-13z"/>
  </g>
  <path class="fil1 str1" d="M11937 8680c0,0 265,0 265,0"/>
  <path class="fil1 str1" d="M11937 8983c0,0 265,0 265,0"/>
  <path class="fil1 str1" d="M11937 8983c0,0 265,-303 265,-303"/>
  <path class="fil1 str1" d="M11656 8920c0,0 195,0 195,0"/>
  <path class="fil1 str1" d="M11656 9171c0,0 195,0 195,0"/>
  <path class="fil1 str1" d="M11656 9171c0,0 195,-251 195,-251"/>
  <path class="fil1 str1" d="M11417 9125c0,0 145,0 145,0"/>
  <path class="fil1 str1" d="M11398 9329c0,0 146,0 146,0"/>
  <path class="fil1 str1" d="M11398 9329c0,0 164,-204 164,-204"/>
  <path class="fil0 str0" d="M12070 11434c-54,98 -157,160 -269,160 -113,0 -217,-62 -271,-160 0,0 -140,0 -140,0 -5,0 -10,-3 -12,-7 -3,-5 -3,-10 0,-15 2,-4 7,-7 12,-7 0,0 338,0 338,0 5,0 10,3 12,7 3,5 3,10 0,15 -2,4 -7,7 -12,7 0,0 -165,0 -165,0 52,81 141,131 237,130 97,0 186,-49 237,-130 0,0 -165,0 -165,0 -5,0 -9,-3 -12,-7 -3,-5 -3,-10 0,-15 3,-4 7,-7 12,-7 0,0 338,0 338,0 5,0 10,3 12,7 3,5 3,10 0,15 -2,4 -7,7 -12,7 0,0 -140,0 -140,0z"/>
  <path class="fil0 str0" d="M11786 11790c0,0 0,-113 0,-113 0,-5 2,-10 7,-12 4,-3 10,-3 14,0 5,2 7,7 7,12 0,0 0,113 0,113 0,5 -2,10 -7,12 -4,3 -10,3 -14,0 -5,-2 -7,-7 -7,-12z"/>
  <path class="fil0 str0" d="M11535 11721c0,0 66,-62 66,-62 4,-4 9,-5 14,-3 5,1 9,5 10,10 1,5 -1,11 -4,14 0,0 -67,62 -67,62 -4,4 -9,5 -14,3 -5,-1 -9,-5 -10,-10 -1,-5 1,-11 5,-14z"/>
  <path class="fil0 str0" d="M12065 11721c0,0 -66,-62 -66,-62 -4,-4 -9,-5 -14,-3 -5,1 -9,5 -10,10 -1,5 1,11 4,14 0,0 67,62 67,62 4,4 9,5 14,3 5,-1 9,-5 10,-10 1,-5 -1,-11 -5,-14z"/>
  <path class="fil0 str0" d="M9144 15806c0,0 116,0 116,0 5,0 10,-3 13,-7 2,-5 2,-10 0,-15 -3,-4 -8,-7 -13,-7 0,0 -43,0 -43,0 0,0 0,-346 0,-346 0,-5 -3,-10 -7,-12 -5,-3 -10,-3 -15,0 -4,2 -7,7 -7,12 0,0 0,346 0,346 0,0 -44,0 -44,0 -5,0 -10,3 -12,7 -3,5 -3,10 0,15 2,4 7,7 12,7z"/>
  <path class="fil0 str0" d="M9317 15878c0,0 -229,0 -229,0 -6,0 -10,-2 -13,-7 -3,-4 -3,-10 0,-14 3,-5 7,-8 13,-8 0,0 229,0 229,0 5,0 10,3 13,8 2,4 2,10 0,14 -3,5 -8,7 -13,7z"/>
  <path class="fil0 str0" d="M9307 15368c0,0 0,161 0,161 0,5 3,10 7,13 5,2 10,2 15,0 4,-3 7,-8 7,-13 0,0 0,-161 0,-161 0,0 58,0 58,0 0,0 -93,-237 -93,-237 0,0 -101,0 -101,0 0,0 -101,0 -101,0 0,0 -93,237 -93,237 0,0 144,0 144,0 5,0 10,-3 12,-7 3,-5 3,-10 0,-15 -2,-4 -7,-7 -12,-7 0,0 -101,0 -101,0 0,0 70,-179 70,-179 0,0 81,0 81,0 0,0 81,0 81,0 0,0 70,179 70,179 0,0 -101,0 -101,0 -5,0 -10,3 -12,7 -3,5 -3,10 0,15 2,4 7,7 12,7 0,0 57,0 57,0z"/>
  <path class="fil0 str0" d="M14385 18119c0,0 -178,0 -178,0 -5,0 -10,-3 -13,-7 -2,-5 -2,-10 0,-15 3,-4 8,-7 13,-7 0,0 178,0 178,0 0,0 0,-179 0,-179 0,-5 3,-10 8,-12 4,-3 10,-3 14,0 5,2 7,7 7,12 0,0 0,179 0,179 0,0 179,0 179,0 5,0 10,3 13,7 2,5 2,10 0,15 -3,4 -8,7 -13,7 0,0 -179,0 -179,0 0,0 0,179 0,179 0,5 -2,10 -7,12 -4,3 -10,3 -14,0 -5,-2 -8,-7 -8,-12 0,0 0,-179 0,-179z"/>
  <g id="_278564008">
   <path class="fil0 str0" d="M14437 10305c0,-21 -17,-37 -37,-37 -20,0 -37,16 -37,37 0,20 17,36 37,36 20,0 37,-16 37,-36z"/>
   <path class="fil0 str0" d="M14337 10397c-6,20 -18,37 -36,48 -37,13 -79,7 -110,-18 -13,-8 -29,-11 -44,-5 -20,5 -35,22 -39,43 -4,28 1,56 14,80 20,26 51,42 83,45 31,1 61,-5 88,-16 23,-10 44,-24 61,-42 18,-19 31,-42 36,-68 4,-14 6,-29 7,-44 0,-5 3,-10 8,-12 5,-2 10,-2 15,1 4,3 6,8 6,13 -1,17 -4,33 -8,49 -6,31 -21,59 -43,81 -20,21 -44,37 -70,48 -32,14 -67,20 -101,19 -42,-3 -81,-25 -106,-58 -17,-31 -24,-66 -19,-100 6,-32 29,-58 59,-67 24,-8 50,-4 70,10 23,18 53,23 80,15 10,-7 18,-18 21,-30 1,-5 5,-9 10,-10 5,-1 11,0 14,4 4,3 5,9 4,14z"/>
   <path class="fil0 str0" d="M14492 10368c20,5 37,18 49,35 13,38 6,79 -18,111 -9,12 -11,29 -6,43 6,21 23,36 44,40 27,4 55,-1 79,-14 26,-21 43,-51 46,-84 0,-30 -5,-60 -17,-88 -10,-23 -24,-43 -41,-61 -19,-18 -43,-30 -68,-36 -15,-3 -30,-5 -44,-6 -6,-1 -10,-4 -12,-9 -3,-4 -2,-10 1,-14 3,-4 7,-7 13,-6 16,1 32,3 48,7 31,7 59,22 82,43 20,21 36,44 48,71 13,32 20,66 19,101 -4,42 -25,80 -59,106 -30,17 -65,23 -100,18 -32,-5 -58,-28 -67,-59 -8,-23 -4,-49 11,-69 17,-23 23,-53 14,-81 -7,-10 -18,-17 -30,-20 -5,-2 -8,-6 -10,-11 -1,-5 0,-10 4,-14 4,-3 9,-5 14,-3z"/>
   <path class="fil0 str0" d="M14463 10212c6,-20 18,-37 36,-48 37,-13 79,-6 110,18 13,9 29,11 44,6 20,-6 35,-23 39,-44 4,-27 -1,-55 -14,-80 -20,-26 -51,-42 -83,-45 -31,-1 -61,5 -88,16 -23,10 -44,24 -61,42 -18,19 -31,42 -36,68 -4,14 -6,29 -7,44 0,5 -3,10 -8,12 -5,2 -10,2 -15,-1 -4,-3 -6,-8 -6,-13 1,-16 4,-33 8,-49 6,-30 21,-59 43,-81 20,-21 44,-37 70,-48 32,-14 67,-20 101,-19 42,4 81,25 106,58 17,31 24,66 19,100 -6,32 -29,58 -59,67 -24,8 -50,4 -70,-10 -23,-18 -53,-23 -80,-15 -10,8 -18,18 -21,30 -1,5 -5,9 -10,10 -5,2 -11,0 -14,-4 -4,-3 -5,-9 -4,-14z"/>
   <path class="fil0 str0" d="M14316 10214c-12,-4 -23,-11 -30,-21 -9,-28 -3,-58 14,-80 15,-21 19,-46 11,-70 -9,-31 -35,-54 -67,-59 -35,-5 -70,1 -100,18 -34,26 -55,64 -59,106 -1,35 6,69 19,101 12,27 28,51 48,71 23,21 51,36 82,43 16,4 32,6 48,7 6,1 11,-2 13,-6 3,-4 4,-10 1,-14 -2,-5 -6,-8 -11,-8 -15,-2 -30,-4 -45,-7 -25,-6 -49,-18 -68,-36 -17,-18 -31,-38 -41,-61 -12,-28 -17,-58 -17,-88 3,-33 20,-63 46,-84 24,-13 52,-18 79,-13 21,3 38,18 44,39 5,14 3,31 -6,43 -24,32 -31,73 -18,111 12,17 29,30 49,36 5,1 10,0 14,-4 4,-4 5,-9 4,-14 -1,-5 -5,-9 -10,-10z"/>
  </g>
  <path class="fil0 str0" d="M15460 10552c0,0 492,0 492,0 38,-6 65,-40 61,-79 -3,-38 -24,-67 -62,-67 0,0 -503,0 -503,0 -53,1 -98,-41 -102,-95 -3,-53 48,-101 101,-108 0,0 505,0 505,0 38,-6 65,-40 61,-79 -3,-38 -24,-67 -62,-66 0,0 -491,-1 -491,-1 -7,25 -31,41 -56,37 -26,-4 -45,-26 -44,-51 0,-26 18,-47 44,-51 25,-4 49,12 56,36 0,0 492,1 492,1 53,-1 98,41 102,94 3,54 -48,102 -101,109 0,0 -505,0 -505,0 -38,6 -65,40 -61,79 3,38 24,67 62,66 0,0 503,1 503,1 53,-1 98,41 102,94 3,54 -48,102 -101,109 0,0 -493,0 -493,0 -7,24 -31,40 -56,36 -26,-4 -44,-25 -44,-51 0,-25 18,-47 44,-51 25,-3 49,12 56,37z"/>
  <path class="fil0 str0" d="M11473 10082c0,0 55,-74 55,-74 0,0 0,274 0,274 0,5 2,10 7,13 4,2 10,2 14,0 5,-3 8,-8 8,-13 0,0 0,-274 0,-274 0,0 54,74 54,74 3,4 8,6 13,5 6,0 10,-3 12,-8 2,-5 1,-10 -2,-15 0,0 -92,-124 -92,-124 0,0 -92,124 -92,124 -3,5 -4,10 -2,15 2,5 7,8 12,8 5,1 10,-1 13,-5z"/>
  <path class="fil0 str0" d="M11468 10670c0,0 602,0 602,0 27,0 52,-15 66,-39 14,-24 14,-53 0,-76 -14,-24 -39,-39 -66,-39 0,0 -540,0 -540,0 -17,0 -33,-9 -41,-24 -9,-14 -9,-32 0,-47 8,-15 24,-24 41,-24 0,0 602,0 602,0 5,0 10,-3 12,-7 3,-5 3,-10 0,-15 -2,-4 -7,-7 -12,-7 0,0 -602,0 -602,0 -27,0 -52,15 -66,38 -14,24 -14,53 0,77 14,24 39,38 66,38 0,0 540,0 540,0 17,0 33,9 41,24 9,15 9,33 0,48 -8,14 -24,24 -41,24 0,0 -602,0 -602,0 -5,0 -10,2 -12,7 -3,4 -3,10 0,14 2,5 7,8 12,8z"/>
  <path class="fil0 str0" d="M11731 10082c0,0 55,-74 55,-74 0,0 0,274 0,274 0,5 2,10 7,13 4,2 10,2 14,0 5,-3 7,-8 7,-13 0,0 0,-274 0,-274 0,0 55,74 55,74 3,4 8,6 13,5 5,0 10,-3 12,-8 2,-5 1,-10 -2,-15 0,0 -92,-124 -92,-124 0,0 -92,124 -92,124 -3,5 -4,10 -2,15 2,5 7,8 12,8 5,1 10,-1 13,-5z"/>
  <path class="fil0 str0" d="M12127 10082c0,0 -55,-74 -55,-74 0,0 0,274 0,274 0,5 -2,10 -7,13 -4,2 -10,2 -14,0 -5,-3 -8,-8 -8,-13 0,0 0,-274 0,-274 0,0 -54,74 -54,74 -3,4 -8,6 -13,5 -6,0 -10,-3 -12,-8 -2,-5 -1,-10 2,-15 0,0 92,-124 92,-124 0,0 92,124 92,124 3,5 4,10 2,15 -2,5 -7,8 -12,8 -5,1 -10,-1 -13,-5z"/>
  <path class="fil0 str0" d="M9369 11405c0,0 -338,0 -338,0 -5,0 -10,3 -12,7 -3,5 -3,10 0,15 2,4 7,7 12,7 0,0 338,0 338,0 5,0 10,-3 12,-7 3,-5 3,-10 0,-15 -2,-4 -7,-7 -12,-7z"/>
  <path class="fil0 str0" d="M9620 11430c-111,112 -262,175 -420,175 -157,0 -309,-63 -420,-175 -4,-4 -5,-9 -4,-14 2,-5 6,-9 11,-11 5,-1 10,1 14,4 105,107 249,167 399,167 150,0 294,-60 399,-167 4,-3 9,-5 14,-4 5,2 9,6 11,11 1,5 0,10 -4,14z"/>
  <path class="fil0 str0" d="M9186 11790c0,0 0,-113 0,-113 0,-5 2,-10 7,-13 4,-2 10,-2 14,0 5,3 8,8 8,13 0,0 0,113 0,113 0,5 -3,10 -8,12 -4,3 -10,3 -14,0 -5,-2 -7,-7 -7,-12z"/>
  <path class="fil0 str0" d="M8935 11721c0,0 66,-62 66,-62 4,-4 9,-5 14,-3 5,1 9,5 10,10 1,5 -1,11 -4,14 0,0 -67,62 -67,62 -4,4 -9,5 -14,3 -5,-1 -9,-5 -10,-10 -1,-5 1,-11 5,-14z"/>
  <path class="fil0 str0" d="M9465 11721c0,0 -66,-62 -66,-62 -4,-4 -9,-5 -14,-3 -5,1 -9,5 -10,10 -1,5 1,11 4,14 0,0 67,62 67,62 4,4 9,5 14,3 5,-1 9,-5 10,-10 1,-5 -1,-11 -5,-14z"/>
  <path class="fil0 str0" d="M12687 11475c-5,0 -10,-3 -13,-7 -2,-5 -2,-10 0,-15 3,-4 8,-7 13,-7 0,0 822,0 822,0 6,-1 11,1 15,5 3,4 4,9 3,15 -2,5 -13,8 -18,9 0,0 -396,0 -396,0 0,0 0,59 0,59 0,5 -3,10 -8,13 -4,2 -10,2 -14,0 -5,-3 -7,-8 -7,-13 0,0 0,-59 0,-59 0,0 -397,0 -397,0z"/>
  <path class="fil0 str0" d="M13305 11734c0,0 163,0 163,0 0,0 0,-92 0,-92 0,0 -739,0 -739,0 0,0 0,92 0,92 0,0 163,0 163,0 6,0 10,3 13,8 3,4 3,10 0,14 -3,5 -7,7 -13,7 0,0 -192,0 -192,0 0,0 0,-150 0,-150 0,0 797,0 797,0 0,0 0,150 0,150 0,0 -192,0 -192,0 -6,0 -10,-2 -13,-7 -3,-4 -3,-10 0,-14 3,-5 7,-8 13,-8z"/>
  <path class="fil0 str0" d="M13167 11734c0,0 -69,0 -69,0 0,0 -69,0 -69,0 -5,0 -10,3 -12,7 -3,5 -3,10 -1,15 3,4 8,7 13,7 0,0 69,0 69,0 0,0 69,0 69,0 6,0 10,-2 13,-7 3,-4 3,-10 0,-14 -3,-5 -7,-8 -13,-8z"/>
  <path class="fil0 str0" d="M12957 12585c0,0 0,115 0,115 0,5 3,10 8,13 4,3 10,3 15,0 5,-3 7,-8 7,-13 0,0 0,-115 0,-115 0,0 265,0 265,0 5,0 10,-3 13,-8 2,-4 2,-10 0,-15 -3,-5 -8,-7 -13,-7 0,0 -493,0 -493,0 -5,0 -10,2 -13,7 -3,5 -3,11 0,15 3,5 8,8 13,8 0,0 198,0 198,0z"/>
  <path class="fil0 str0" d="M13075 12727c0,0 38,-24 38,-24 0,0 155,226 155,226 0,0 -206,141 -206,141 0,0 -155,-226 -155,-226 0,0 31,-23 31,-23 4,-3 7,-8 6,-13 0,-6 -4,-10 -9,-13 -4,-2 -10,-1 -15,2 0,0 -55,39 -55,39 0,0 189,276 189,276 0,0 256,-175 256,-175 0,0 -189,-276 -189,-276 0,0 -62,41 -62,41 -5,3 -7,8 -7,13 0,6 3,11 8,13 5,2 11,2 15,-1z"/>
  <path class="fil0 str0" d="M13344 13191c0,0 -69,-96 -69,-96 -3,-4 -8,-6 -14,-6 -5,1 -10,4 -12,9 -2,5 -2,11 1,15 0,0 69,96 69,96 3,4 9,7 14,6 5,0 10,-4 12,-9 3,-5 2,-10 -1,-15z"/>
  <path class="fil0 str0" d="M13443 12985c0,0 -94,-14 -94,-14 -5,-1 -11,1 -14,5 -3,4 -4,10 -2,15 2,5 6,9 11,10 0,0 94,14 94,14 6,1 11,-1 14,-5 4,-4 5,-10 3,-15 -2,-5 -7,-9 -12,-10z"/>
  <path class="fil0 str0" d="M13092 13237c0,0 17,-94 17,-94 0,-5 4,-10 9,-12 5,-1 11,0 15,3 4,4 6,9 5,14 0,0 -16,94 -16,94 -1,5 -4,10 -9,12 -6,2 -11,1 -15,-3 -5,-3 -7,-9 -6,-14z"/>
  <path class="fil0 str0" d="M5597 10013c0,0 -594,0 -594,0 -5,0 -10,2 -12,7 -3,4 -3,10 0,14 2,5 7,8 12,8 0,0 594,0 594,0 5,0 10,-3 12,-8 3,-4 3,-10 0,-14 -2,-5 -7,-7 -12,-7z"/>
  <path class="fil0 str0" d="M5002 10582c0,0 0,-441 0,-441 0,-6 3,-10 7,-13 5,-3 10,-3 15,0 4,3 7,7 7,13 0,0 0,441 0,441 0,5 -3,10 -7,13 -5,2 -10,2 -15,0 -4,-3 -7,-8 -7,-13z"/>
  <path class="fil0 str0" d="M5124 10582c0,0 0,-441 0,-441 0,-6 3,-10 7,-13 5,-3 10,-3 15,0 4,3 7,7 7,13 0,0 0,441 0,441 0,5 -3,10 -7,13 -5,2 -10,2 -15,0 -4,-3 -7,-8 -7,-13z"/>
  <path class="fil0 str0" d="M5447 10582c0,0 0,-441 0,-441 0,-6 3,-10 7,-13 5,-3 10,-3 15,0 4,3 7,7 7,13 0,0 0,441 0,441 0,5 -3,10 -7,13 -5,2 -10,2 -15,0 -4,-3 -7,-8 -7,-13z"/>
  <path class="fil0 str0" d="M5569 10582c0,0 0,-441 0,-441 0,-6 3,-10 7,-13 5,-3 10,-3 15,0 4,3 7,7 7,13 0,0 0,441 0,441 0,5 -3,10 -7,13 -5,2 -10,2 -15,0 -4,-3 -7,-8 -7,-13z"/>
  <path class="fil0 str0" d="M8124 10436c0,0 0,-151 0,-151 0,-5 -3,-10 -7,-13 -5,-2 -10,-2 -15,0 -4,3 -7,8 -7,13 0,0 0,151 0,151 -18,7 -29,26 -25,45 4,19 20,33 39,33 20,0 36,-14 40,-33 3,-19 -7,-38 -25,-45z"/>
  <path class="fil0 str0" d="M8104 9988c0,0 -408,0 -408,0 -5,0 -10,3 -13,7 -2,5 -2,10 0,15 3,4 8,7 13,7 0,0 408,0 408,0 5,0 10,-3 13,-7 2,-5 2,-10 0,-15 -3,-4 -8,-7 -13,-7z"/>
  <path class="fil0 str0" d="M7570 10031c0,0 0,520 0,520 0,5 2,10 7,12 4,3 10,3 14,0 5,-2 8,-7 8,-12 0,0 0,-520 0,-520 0,-6 -3,-10 -8,-13 -4,-3 -10,-3 -14,0 -5,3 -7,7 -7,13z"/>
  <path class="fil0 str0" d="M8104 10086c0,0 -408,0 -408,0 -5,0 -10,3 -13,7 -2,5 -2,10 0,15 3,4 8,7 13,7 0,0 408,0 408,0 5,0 10,-3 13,-7 2,-5 2,-10 0,-15 -3,-4 -8,-7 -13,-7z"/>
  <path class="fil0 str0" d="M8104 10184c0,0 -408,0 -408,0 -5,0 -10,2 -13,7 -2,4 -2,10 0,14 3,5 8,8 13,8 0,0 408,0 408,0 5,0 10,-3 13,-8 2,-4 2,-10 0,-14 -3,-5 -8,-7 -13,-7z"/>
  <path class="fil0 str0" d="M8104 10592c0,0 -408,0 -408,0 -5,0 -10,3 -13,7 -2,5 -2,10 0,15 3,4 8,7 13,7 0,0 408,0 408,0 5,0 10,-3 13,-7 2,-5 2,-10 0,-15 -3,-4 -8,-7 -13,-7z"/>
  <path class="fil0 str0" d="M8201 10031c0,0 0,520 0,520 0,5 3,10 8,12 4,3 10,3 14,0 5,-2 7,-7 7,-12 0,0 0,-520 0,-520 0,-6 -2,-10 -7,-13 -4,-3 -10,-3 -14,0 -5,3 -8,7 -8,13z"/>
  <g id="_275355880">
   <path class="fil0 str0" d="M15356 11494c0,0 -52,0 -52,0 -15,52 7,108 53,136 0,0 95,0 95,0 46,-28 67,-84 53,-136 0,0 -52,0 -52,0 -6,0 -10,-3 -13,-7 -3,-4 -3,-10 0,-14 3,-5 7,-8 13,-8 0,0 72,0 72,0 32,72 4,156 -65,194 0,0 -111,0 -111,0 -69,-38 -98,-122 -66,-194 0,0 73,0 73,0 5,0 10,3 13,8 2,4 2,10 0,14 -3,4 -8,7 -13,7z"/>
   <path class="fil0 str0" d="M16010 11714c0,0 0,30 0,30 -7,66 -48,124 -108,153 -60,29 -131,24 -188,-11 0,0 0,128 0,128 0,5 -2,10 -7,12 -4,3 -10,3 -14,0 -5,-2 -7,-7 -7,-12 0,0 0,-128 0,-128 -57,36 -127,40 -187,11 -61,-28 -102,-87 -109,-153 0,0 0,-30 0,-30 0,-5 3,-10 7,-13 5,-2 10,-2 15,0 4,3 7,8 7,13 0,0 0,29 0,29 6,53 39,100 86,125 48,25 104,25 152,1 -37,-16 -66,-46 -81,-84 -14,-37 -13,-79 3,-116 0,0 73,0 73,0 5,0 10,3 12,7 3,4 3,10 0,14 -2,5 -7,8 -12,8 0,0 -53,0 -53,0 -14,52 8,107 53,136 0,0 96,0 96,0 45,-29 67,-84 53,-136 0,0 -53,0 -53,0 -5,0 -10,-3 -12,-8 -3,-4 -3,-10 0,-14 2,-4 7,-7 12,-7 0,0 73,0 73,0 16,37 17,78 3,116 -15,37 -44,68 -81,84 48,24 105,24 152,-1 48,-26 80,-72 86,-125 0,0 0,-29 0,-29 0,-5 3,-10 7,-13 5,-2 10,-2 15,0 4,3 7,8 7,13z"/>
   <path class="fil0 str0" d="M15640 11185c16,16 38,25 60,25 22,0 44,-9 60,-25 3,-4 9,-5 14,-4 5,2 9,6 10,11 1,5 0,10 -4,14 -17,17 -41,29 -66,32 0,0 0,312 0,312 0,5 -2,10 -7,13 -4,2 -10,2 -14,0 -5,-3 -7,-8 -7,-13 0,0 0,-312 0,-312 -25,-3 -49,-15 -66,-32 -4,-4 -5,-9 -4,-14 1,-5 5,-9 10,-11 5,-1 11,0 14,4z"/>
   <path class="fil0 str0" d="M16044 11465c0,0 73,0 73,0 32,72 3,156 -66,194 0,0 -111,0 -111,0 -69,-38 -97,-122 -65,-194 0,0 72,0 72,0 6,0 10,3 13,8 3,4 3,10 0,14 -3,4 -7,7 -13,7 0,0 -52,0 -52,0 -14,52 7,108 53,136 0,0 95,0 95,0 46,-28 68,-84 53,-136 0,0 -52,0 -52,0 -5,0 -10,-3 -13,-7 -2,-4 -2,-10 0,-14 3,-5 8,-8 13,-8z"/>
  </g>
  <path class="fil0 str0" d="M5286 13128c0,0 0,-500 0,-500 -25,-3 -49,-15 -66,-33 -4,-3 -5,-9 -4,-14 1,-5 5,-9 10,-10 5,-1 11,0 14,4 16,16 38,25 60,25 23,0 44,-9 60,-25 3,-4 9,-5 14,-4 5,1 9,5 10,10 1,5 0,11 -4,14 -17,18 -41,30 -66,33 0,0 0,500 0,500 26,59 90,89 152,72 61,-17 101,-69 92,-132 -1,-6 1,-11 6,-14 4,-3 9,-3 14,-1 5,2 8,6 9,11 8,72 -34,141 -102,165 -68,25 -146,-4 -185,-65 -37,62 -113,89 -182,67 -68,-23 -112,-95 -105,-167 1,-5 4,-9 9,-11 5,-2 10,-2 14,1 5,3 7,8 6,14 -5,63 38,120 100,134 62,13 122,-14 144,-74z"/>
  <path class="fil0 str0" d="M5067 12996c0,0 75,0 75,0 0,0 -53,-134 -53,-134 0,0 -61,0 -61,0 0,0 -62,0 -62,0 0,0 -52,134 -52,134 0,0 75,0 75,0 5,0 10,3 12,7 3,5 3,10 0,15 -2,4 -7,7 -12,7 0,0 -117,0 -117,0 0,0 74,-192 74,-192 0,0 82,0 82,0 0,0 81,0 81,0 0,0 75,192 75,192 0,0 -117,0 -117,0 -5,0 -10,-3 -13,-7 -2,-5 -2,-10 0,-15 3,-4 8,-7 13,-7z"/>
  <path class="fil0 str0" d="M5533 12996c0,0 -75,0 -75,0 0,0 53,-134 53,-134 0,0 61,0 61,0 0,0 62,0 62,0 0,0 52,134 52,134 0,0 -75,0 -75,0 -5,0 -10,3 -12,7 -3,5 -3,10 0,15 2,4 7,7 12,7 0,0 117,0 117,0 0,0 -74,-192 -74,-192 0,0 -82,0 -82,0 0,0 -81,0 -81,0 0,0 -75,192 -75,192 0,0 117,0 117,0 5,0 10,-3 13,-7 2,-5 2,-10 0,-15 -3,-4 -8,-7 -13,-7z"/>
  <path class="fil0 str0" d="M9317 12813c0,0 -111,0 -111,0 0,0 77,-197 77,-197 0,0 89,0 89,0 0,0 90,0 90,0 0,0 77,197 77,197 0,0 -112,0 -112,0 -5,0 -11,3 -13,8 -3,5 -3,11 0,16 2,5 8,8 13,8 0,0 158,0 158,0 0,0 -101,-261 -101,-261 0,0 -112,0 -112,0 0,0 -111,0 -111,0 0,0 -102,261 -102,261 0,0 158,0 158,0 6,0 11,-3 14,-8 3,-5 3,-11 0,-16 -3,-5 -8,-8 -14,-8z"/>
  <path class="fil0 str0" d="M8830 12889c0,0 54,0 54,0 0,0 0,193 0,193 0,0 -54,0 -54,0 -5,0 -10,3 -13,8 -3,4 -3,11 0,15 3,5 8,8 13,8 0,0 86,0 86,0 0,0 0,-112 0,-112 0,0 74,0 74,0 0,0 0,86 0,86 32,94 128,151 226,135 99,-16 171,-92 172,-192 0,0 3,-115 3,-115 0,-6 -3,-11 -8,-14 -5,-3 -11,-3 -16,0 -5,2 -8,7 -8,13 0,0 -3,115 -3,115 -1,83 -60,153 -142,167 -81,15 -163,-37 -192,-115 0,0 0,-80 0,-80 0,0 33,0 33,0 6,0 11,-3 14,-8 3,-5 3,-11 0,-16 -3,-5 -8,-8 -14,-8 0,0 -139,0 -139,0 0,0 0,-112 0,-112 0,0 -86,0 -86,0 -5,0 -10,3 -13,8 -3,5 -3,11 0,16 3,5 8,8 13,8z"/>
  <path class="fil0 str0" d="M10548 15352c7,6 15,11 23,17 59,-98 49,-222 -25,-308 0,0 -108,151 -108,151 -31,-10 -65,1 -84,27 -19,27 -18,62 2,88 0,0 -107,150 -107,150 82,32 174,22 246,-28 0,0 -16,-24 -16,-24 -53,37 -120,50 -183,36 0,0 250,-351 250,-351 45,74 46,167 2,242z"/>
  <path class="fil0 str0" d="M10578 15531c0,0 0,403 0,403 0,5 -3,10 -7,12 -5,3 -10,3 -15,0 -4,-2 -7,-7 -7,-12 0,0 0,-403 0,-403 0,0 -145,408 -145,408 -2,5 -6,8 -11,9 -5,1 -10,-1 -14,-5 -3,-4 -4,-9 -2,-14 0,0 173,-488 173,-488 2,-5 7,-9 13,-9 6,0 12,4 14,9 0,0 173,488 173,488 1,5 0,10 -3,14 -3,4 -8,6 -14,5 -5,-1 -9,-4 -11,-9 0,0 -144,-408 -144,-408z"/>
  <g id="_275353864">
   <path class="fil0 str0" d="M6201 11526c-5,0 -10,-3 -12,-8 -3,-5 -3,-11 0,-16 2,-5 7,-8 12,-8 0,0 796,0 796,0 5,-1 10,1 14,5 3,5 4,11 3,16 -2,6 -13,10 -18,11 -276,0 -517,0 -795,0z"/>
   <path class="fil0 str0" d="M6200 11715c-5,0 -10,-3 -12,-7 -3,-5 -3,-12 0,-16 2,-5 7,-8 12,-8 0,0 795,0 795,0 6,-2 11,0 14,5 4,4 5,10 3,16 -2,6 -12,9 -17,10 -276,0 -517,0 -795,0z"/>
   <path class="fil0 str0" d="M6640 11605c0,-16 -12,-28 -27,-28 -15,0 -28,12 -28,28 0,15 13,27 28,27 15,0 27,-12 27,-27z"/>
   <path class="fil0 str0" d="M6614 11605c0,-1 -1,-2 -1,-2 -1,0 -1,1 -1,2 0,0 0,1 1,1 0,0 1,-1 1,-1z"/>
   <path class="fil0 str0" d="M6881 11605c0,-15 -12,-28 -27,-28 -15,0 -28,13 -28,28 0,15 13,27 28,27 15,0 27,-12 27,-27z"/>
   <path class="fil0 str0" d="M6855 11605c0,-1 0,-1 -1,-1 -1,0 -1,0 -1,1 0,1 0,1 1,1 1,0 1,0 1,-1z"/>
   <path class="fil0 str0" d="M6372 11605c0,-15 -12,-28 -27,-28 -16,0 -28,13 -28,28 0,15 12,27 28,27 15,0 27,-12 27,-27z"/>
   <path class="fil0 str0" d="M6346 11605c0,-1 -1,-1 -1,-1 -1,0 -1,0 -1,1 0,1 0,1 1,1 0,0 1,0 1,-1z"/>
  </g>
  <path class="fil0 str0" d="M15893 18090c0,0 -386,0 -386,0 -5,0 -10,3 -13,7 -2,5 -2,10 0,15 3,4 8,7 13,7 0,0 386,0 386,0 5,0 10,-3 13,-7 2,-5 2,-10 0,-15 -3,-4 -8,-7 -13,-7z"/>
  <path class="fil0 str0" d="M5602 19571c0,0 -302,-289 -302,-289 0,0 -302,289 -302,289 -5,4 -11,6 -17,4 -6,-2 -11,-7 -12,-13 -2,-6 0,-12 5,-17 0,0 326,-311 326,-311 0,0 326,311 326,311 5,5 7,11 5,17 -1,6 -6,11 -12,13 -6,2 -12,0 -17,-4z"/>
  <path class="fil0 str0" d="M6274 19264c0,0 326,311 326,311 0,0 326,-311 326,-311 5,-5 7,-11 5,-17 -1,-6 -6,-11 -12,-13 -6,-1 -12,0 -17,4 0,0 -302,289 -302,289 0,0 -302,-289 -302,-289 -5,-4 -11,-5 -17,-4 -6,2 -11,7 -12,13 -2,6 0,12 5,17z"/>
  <path class="fil0 str0" d="M6540 12547c-3,-4 -9,-5 -14,-4 -5,1 -9,5 -10,10 -1,5 0,11 4,14 17,18 41,30 66,33 0,0 0,207 0,207 -36,-51 -97,-78 -159,-70 -62,7 -115,47 -137,105 0,0 0,33 0,33 0,5 3,10 7,12 5,3 10,3 15,0 4,-2 7,-7 7,-12 0,0 0,-27 0,-27 24,-54 79,-87 138,-84 59,3 110,43 129,100 0,0 0,154 0,154 0,5 2,10 7,13 4,2 10,2 14,0 5,-3 8,-8 8,-13 0,0 0,-153 0,-153 17,-57 67,-97 126,-101 60,-4 116,30 140,84 0,0 0,27 0,27 0,5 3,10 7,12 5,3 10,3 15,0 4,-2 7,-7 7,-12 0,0 0,-33 0,-33 -23,-58 -76,-98 -137,-106 -62,-7 -123,20 -158,71 0,0 0,-207 0,-207 24,-3 48,-15 65,-33 4,-3 5,-9 4,-14 -1,-5 -5,-9 -10,-10 -5,-1 -11,0 -14,4 -16,16 -38,25 -60,25 -22,0 -44,-9 -60,-25z"/>
  <path class="fil0 str0" d="M6260 12956c-48,28 -71,85 -56,138 0,0 100,0 100,0 0,0 101,0 101,0 15,-53 -9,-110 -56,-138 -5,-2 -8,-7 -8,-12 0,-5 3,-10 8,-13 4,-2 10,-2 14,0 67,39 94,122 62,192 0,0 -121,0 -121,0 0,0 -121,0 -121,0 -31,-70 -4,-153 62,-192 5,-2 10,-2 15,0 4,3 7,8 7,13 0,5 -2,10 -7,12z"/>
  <path class="fil0 str0" d="M6556 13100c-48,28 -71,84 -57,138 0,0 101,0 101,0 0,0 101,0 101,0 14,-54 -9,-110 -57,-138 -4,-3 -7,-8 -7,-13 0,-5 3,-10 7,-12 5,-3 10,-3 15,0 66,38 93,121 62,192 0,0 -121,0 -121,0 0,0 -121,0 -121,0 -31,-71 -4,-154 62,-192 5,-3 10,-3 15,0 4,2 7,7 7,12 0,5 -3,10 -7,13z"/>
  <path class="fil0 str0" d="M6851 12956c-47,28 -71,85 -56,138 0,0 101,0 101,0 0,0 100,0 100,0 15,-53 -8,-110 -56,-138 -4,-2 -7,-7 -7,-12 0,-5 3,-10 7,-13 5,-2 10,-2 15,0 66,39 93,122 62,192 0,0 -121,0 -121,0 0,0 -121,0 -121,0 -32,-70 -5,-153 62,-192 4,-2 10,-2 14,0 5,3 8,8 8,13 0,5 -3,10 -8,12z"/>
  <path class="fil0 str0" d="M10272 19356c0,0 0,-179 0,-179 0,0 456,0 456,0 0,0 0,179 0,179 0,5 -3,10 -7,13 -5,2 -10,2 -15,0 -4,-3 -7,-8 -7,-13 0,0 0,-150 0,-150 0,0 -398,0 -398,0 0,0 0,150 0,150 0,5 -3,10 -7,13 -5,2 -10,2 -15,0 -4,-3 -7,-8 -7,-13z"/>
  <path class="fil0 str0" d="M10728 19453c0,0 0,180 0,180 0,0 -456,0 -456,0 0,0 0,-180 0,-180 0,-5 3,-10 7,-13 5,-2 10,-2 15,0 4,3 7,8 7,13 0,0 0,151 0,151 0,0 398,0 398,0 0,0 0,-151 0,-151 0,-5 3,-10 7,-13 5,-2 10,-2 15,0 4,3 7,8 7,13z"/>
  <path class="fil0 str0" d="M14382 19405c0,0 -352,217 -352,217 0,0 0,33 0,33 0,0 404,-250 404,-250 0,0 -404,-250 -404,-250 0,0 0,32 0,32 0,0 352,218 352,218z"/>
  <path class="fil0 str0" d="M14742 19179c0,279 0,76 0,451 0,5 3,9 7,12 5,2 10,2 14,0 4,-3 7,-7 7,-12 0,0 0,-451 0,-451 0,-5 -3,-9 -7,-12 -4,-2 -9,-2 -14,0 -4,3 -7,7 -7,12z"/>
  <path class="fil0 str0" d="M14718 19405c0,0 -352,217 -352,217 0,0 0,33 0,33 0,0 404,-250 404,-250 0,0 -404,-250 -404,-250 0,0 0,32 0,32 0,0 352,218 352,218z"/>
  <path class="fil0 str0" d="M9066 19166c0,295 0,81 0,477 0,5 2,10 7,12 4,3 10,3 14,0 5,-2 8,-7 8,-12 0,0 0,-477 0,-477 0,-5 -3,-9 -8,-12 -4,-3 -10,-3 -14,0 -5,3 -7,7 -7,12z"/>
  <path class="fil0 str0" d="M9305 19166c0,295 0,81 0,477 0,5 3,10 8,12 4,3 10,3 14,0 5,-2 7,-7 7,-12 0,0 0,-477 0,-477 0,-5 -2,-9 -7,-12 -4,-3 -10,-3 -14,0 -5,3 -8,7 -8,12z"/>
  <path class="fil0 str0" d="M15682 19405c0,0 -352,217 -352,217 0,0 0,33 0,33 0,0 404,-250 404,-250 0,0 -404,-250 -404,-250 0,0 0,32 0,32 0,0 352,218 352,218z"/>
  <path class="fil0 str0" d="M16018 19405c0,0 -352,217 -352,217 0,0 0,33 0,33 0,0 404,-250 404,-250 0,0 -404,-250 -404,-250 0,0 0,32 0,32 0,0 352,218 352,218z"/>
  <path class="fil0 str0" d="M13118 19405c0,0 352,-218 352,-218 0,0 0,-32 0,-32 0,0 -404,250 -404,250 0,0 404,250 404,250 0,0 0,-33 0,-33 0,0 -352,-217 -352,-217z"/>
  <path class="fil0 str0" d="M12758 19630c0,-278 0,-76 0,-451 0,-5 -3,-9 -7,-12 -5,-2 -10,-2 -14,0 -4,3 -7,7 -7,12 0,0 0,451 0,451 0,5 3,9 7,12 4,2 9,2 14,0 4,-3 7,-7 7,-12z"/>
  <path class="fil0 str0" d="M12782 19405c0,0 352,-218 352,-218 0,0 0,-32 0,-32 0,0 -404,250 -404,250 0,0 404,250 404,250 0,0 0,-33 0,-33 0,0 -352,-217 -352,-217z"/>
  <path class="fil0 str0" d="M11818 19405c0,0 352,-218 352,-218 0,0 0,-32 0,-32 0,0 -404,250 -404,250 0,0 404,250 404,250 0,0 0,-33 0,-33 0,0 -352,-217 -352,-217z"/>
  <path class="fil0 str0" d="M11482 19405c0,0 352,-218 352,-218 0,0 0,-32 0,-32 0,0 -404,250 -404,250 0,0 404,250 404,250 0,0 0,-33 0,-33 0,0 -352,-217 -352,-217z"/>
  <path class="fil0 str0" d="M5245 16697c5,-2 10,-2 15,1 4,2 6,7 6,13 0,5 -3,9 -8,12 -31,15 -50,47 -50,82 0,34 19,66 50,81 5,3 8,7 8,13 0,5 -2,10 -6,13 -5,2 -10,3 -15,0 -40,-20 -66,-62 -66,-107 0,-46 26,-87 66,-108z"/>
  <path class="fil0 str0" d="M5355 16912c-5,3 -10,2 -15,0 -4,-3 -6,-8 -6,-13 0,-6 3,-10 8,-13 31,-15 50,-47 50,-82 0,-34 -19,-66 -50,-81 -5,-3 -8,-7 -8,-12 0,-6 2,-11 6,-13 5,-3 10,-3 15,-1 40,20 66,62 66,107 0,46 -26,88 -66,108z"/>
  <path class="fil0 str0" d="M5498 16758c1,5 0,10 -4,14 -4,3 -9,4 -14,3 -5,-2 -9,-6 -10,-11 -20,-78 -91,-133 -172,-132 -81,1 -150,53 -168,132 -1,5 -5,9 -10,11 -5,1 -10,0 -14,-3 -4,-4 -5,-9 -4,-14 21,-92 102,-158 196,-159 94,-1 177,67 200,159z"/>
  <path class="fil0 str0" d="M5130 16845c-1,-5 -5,-9 -10,-11 -5,-1 -10,0 -14,4 -4,3 -5,8 -4,13 23,92 106,156 200,155 95,-1 175,-62 196,-155 1,-5 0,-10 -4,-13 -4,-4 -9,-5 -14,-4 -5,2 -9,6 -10,11 -18,78 -87,135 -168,136 -81,1 -152,-58 -172,-136z"/>
  <path class="fil0 str0" d="M4922 16819c0,0 77,0 77,0 5,0 10,-3 13,-7 2,-5 2,-10 0,-15 -3,-4 -8,-7 -13,-7 0,0 -77,0 -77,0 -5,0 -10,3 -12,7 -3,5 -3,10 0,15 2,4 7,7 12,7z"/>
  <path class="fil0 str0" d="M5043 17082c0,0 54,-54 54,-54 4,-4 5,-9 4,-14 -1,-5 -5,-9 -10,-11 -5,-1 -10,0 -14,4 0,0 -54,54 -54,54 -4,4 -6,10 -4,14 1,5 5,9 10,11 5,1 10,0 14,-4z"/>
  <path class="fil0 str0" d="M5314 17182c0,0 0,-76 0,-76 0,-6 -2,-10 -7,-13 -4,-3 -10,-3 -14,0 -5,3 -8,7 -8,13 0,0 0,76 0,76 0,6 3,10 8,13 4,3 10,3 14,0 5,-3 7,-7 7,-13z"/>
  <path class="fil0 str0" d="M5577 17061c0,0 -54,-54 -54,-54 -4,-4 -9,-5 -14,-4 -5,2 -9,6 -10,11 -2,5 0,10 4,14 0,0 54,54 54,54 4,4 9,5 14,4 5,-2 9,-6 10,-11 2,-4 0,-10 -4,-14z"/>
  <path class="fil0 str0" d="M5678 16790c0,0 -77,0 -77,0 -5,0 -10,3 -13,7 -2,5 -2,10 0,15 3,4 8,7 13,7 0,0 77,0 77,0 5,0 10,-3 12,-7 3,-5 3,-10 0,-15 -2,-4 -7,-7 -12,-7z"/>
  <path class="fil0 str0" d="M5557 16527c0,0 -54,54 -54,54 -4,4 -6,9 -4,14 1,5 5,9 10,11 5,1 10,0 14,-4 0,0 54,-54 54,-54 4,-4 6,-9 4,-14 -1,-5 -5,-9 -10,-11 -5,-1 -10,0 -14,4z"/>
  <path class="fil0 str0" d="M5285 16427c0,0 0,77 0,77 0,5 3,10 8,12 4,3 10,3 14,0 5,-2 7,-7 7,-12 0,0 0,-77 0,-77 0,-5 -2,-10 -7,-13 -4,-2 -10,-2 -14,0 -5,3 -8,8 -8,13z"/>
  <path class="fil0 str0" d="M5023 16548c0,0 54,54 54,54 4,4 9,5 14,4 5,-2 9,-6 10,-11 1,-5 0,-10 -4,-14 0,0 -54,-54 -54,-54 -4,-4 -9,-5 -14,-4 -5,2 -9,6 -10,11 -2,5 0,10 4,14z"/>
  <path class="fil0 str0" d="M14474 15778c0,0 -148,0 -148,0 -6,0 -10,-3 -13,-8 -3,-4 -3,-10 0,-14 3,-5 7,-7 13,-7 0,0 148,0 148,0 6,0 10,2 13,7 3,4 3,10 0,14 -3,5 -7,8 -13,8z"/>
  <path class="fil0 str0" d="M14437 15880c0,0 -37,0 -37,0 0,0 -37,0 -37,0 -5,0 -10,-3 -13,-7 -2,-5 -2,-10 0,-15 3,-4 8,-7 13,-7 0,0 37,0 37,0 0,0 37,0 37,0 5,0 10,3 13,7 2,5 2,10 0,15 -3,4 -8,7 -13,7z"/>
  <path class="fil0 str0" d="M14464 15671c2,-35 17,-69 43,-93 56,-59 54,-151 -3,-208 -58,-56 -150,-56 -208,1 -57,56 -59,149 -3,207 26,24 41,58 43,93 0,5 -3,10 -7,13 -4,3 -10,3 -14,0 -5,-2 -8,-7 -8,-12 -1,-28 -14,-54 -34,-74 -68,-69 -66,-180 3,-248 68,-68 179,-69 248,0 69,68 70,179 3,248 -20,20 -33,46 -34,74 0,5 -3,10 -8,12 -4,3 -10,3 -14,0 -5,-3 -7,-8 -7,-13z"/>
  <path class="fil0 str0" d="M14103 15296c0,0 64,64 64,64 4,3 9,5 14,3 5,-1 9,-5 11,-10 1,-5 -1,-10 -4,-14 0,0 -64,-64 -64,-64 -4,-4 -9,-5 -14,-4 -5,2 -9,6 -11,11 -1,5 1,10 4,14z"/>
  <path class="fil0 str0" d="M14385 15144c0,0 0,90 0,90 0,5 3,10 8,13 4,2 10,2 14,0 5,-3 7,-8 7,-13 0,0 0,-90 0,-90 0,-6 -2,-10 -7,-13 -4,-3 -10,-3 -14,0 -5,3 -8,7 -8,13z"/>
  <path class="fil0 str0" d="M14697 15296c0,0 -64,64 -64,64 -4,3 -9,5 -14,3 -5,-1 -9,-5 -11,-10 -1,-5 1,-10 4,-14 0,0 64,-64 64,-64 4,-4 9,-5 14,-4 5,2 9,6 11,11 1,5 -1,10 -4,14z"/>
  <path class="fil0 str0" d="M15774 15693c0,0 -148,0 -148,0 -5,0 -10,-3 -13,-7 -2,-5 -2,-10 0,-15 3,-4 8,-7 13,-7 0,0 148,0 148,0 6,0 10,3 13,7 3,5 3,10 0,15 -3,4 -7,7 -13,7z"/>
  <path class="fil0 str0" d="M15737 15795c0,0 -37,0 -37,0 0,0 -37,0 -37,0 -5,0 -10,-2 -12,-7 -3,-4 -3,-10 0,-14 2,-5 7,-8 12,-8 0,0 37,0 37,0 0,0 37,0 37,0 5,0 10,3 13,8 2,4 2,10 0,14 -3,5 -8,7 -13,7z"/>
  <path class="fil0 str0" d="M15764 15586c2,-35 17,-69 43,-93 56,-58 54,-151 -3,-207 -58,-57 -150,-57 -208,0 -57,57 -59,149 -3,207 26,24 41,58 43,93 0,5 -2,10 -7,13 -4,3 -10,3 -14,1 -5,-3 -8,-7 -8,-13 -1,-28 -14,-54 -34,-73 -68,-70 -66,-181 3,-249 68,-68 179,-68 248,0 69,68 71,179 3,249 -20,19 -33,45 -34,73 0,6 -3,10 -8,13 -4,2 -10,2 -14,-1 -4,-3 -7,-8 -7,-13z"/>
  <path class="fil0 str0" d="M6545 16697c5,-2 10,-2 15,1 4,2 6,7 6,13 0,5 -3,9 -8,12 -31,15 -50,47 -50,82 0,34 19,66 50,81 5,3 8,7 8,13 0,5 -2,10 -6,13 -5,2 -10,3 -15,0 -40,-20 -66,-62 -66,-107 0,-46 26,-87 66,-108z"/>
  <path class="fil0 str0" d="M6655 16912c-5,3 -10,2 -15,0 -4,-3 -6,-8 -6,-13 0,-6 3,-10 8,-13 31,-15 50,-47 50,-82 0,-34 -19,-66 -50,-81 -5,-3 -8,-7 -8,-12 0,-6 2,-11 6,-13 5,-3 10,-3 15,-1 40,20 66,62 66,107 0,46 -26,88 -66,108z"/>
  <path class="fil0 str0" d="M6798 16758c1,5 0,10 -4,14 -4,3 -9,4 -14,3 -5,-2 -9,-6 -10,-11 -20,-78 -91,-133 -172,-132 -81,1 -150,53 -168,132 -1,5 -5,9 -10,11 -5,1 -10,0 -14,-3 -4,-4 -5,-9 -4,-14 21,-92 102,-158 196,-159 94,-1 177,67 200,159z"/>
  <path class="fil0 str0" d="M6430 16845c-1,-5 -5,-9 -10,-11 -5,-1 -10,0 -14,4 -4,3 -5,8 -4,13 23,92 106,156 200,155 95,-1 175,-62 196,-155 1,-5 0,-10 -4,-13 -4,-4 -9,-5 -14,-4 -5,2 -9,6 -10,11 -18,78 -87,135 -168,136 -81,1 -152,-58 -172,-136z"/>
  <path class="fil0 str0" d="M6343 17082c0,0 54,-54 54,-54 4,-4 6,-9 4,-14 -1,-5 -5,-9 -10,-11 -5,-1 -10,0 -14,4 0,0 -54,54 -54,54 -4,4 -6,10 -4,14 1,5 5,9 10,11 5,1 10,0 14,-4z"/>
  <path class="fil0 str0" d="M6877 17061c0,0 -54,-54 -54,-54 -4,-4 -9,-5 -14,-4 -5,2 -9,6 -10,11 -2,5 0,10 4,14 0,0 54,54 54,54 4,4 9,5 14,4 5,-2 9,-6 10,-11 2,-4 0,-10 -4,-14z"/>
  <path class="fil0 str0" d="M6857 16527c0,0 -54,54 -54,54 -4,4 -6,9 -4,14 1,5 5,9 10,11 5,1 10,0 14,-4 0,0 54,-54 54,-54 4,-4 6,-9 4,-14 -1,-5 -5,-9 -10,-11 -5,-1 -10,0 -14,4z"/>
  <path class="fil0 str0" d="M6323 16548c0,0 54,54 54,54 4,4 9,5 14,4 5,-2 9,-6 10,-11 2,-5 0,-10 -4,-14 0,0 -54,-54 -54,-54 -4,-4 -9,-5 -14,-4 -5,2 -9,6 -10,11 -2,5 0,10 4,14z"/>
  <path class="fil0 str0" d="M7845 16699c5,-3 10,-2 15,0 4,3 6,8 6,13 0,6 -3,10 -8,13 -31,15 -50,47 -50,82 0,34 19,66 50,81 5,3 8,7 8,12 0,6 -2,11 -6,13 -5,3 -10,3 -15,1 -40,-20 -66,-62 -66,-107 0,-46 26,-88 66,-108z"/>
  <path class="fil0 str0" d="M7955 16914c-5,2 -10,2 -15,-1 -4,-2 -6,-7 -6,-13 0,-5 3,-9 8,-12 31,-16 50,-47 50,-82 0,-34 -19,-66 -50,-81 -5,-3 -8,-7 -8,-13 0,-5 2,-10 6,-13 5,-2 10,-3 15,0 40,20 66,62 66,107 0,45 -26,87 -66,108z"/>
  <path class="fil0 str0" d="M8098 16760c1,5 0,10 -4,13 -4,4 -9,5 -14,4 -5,-2 -9,-6 -10,-11 -20,-78 -91,-133 -172,-133 -81,1 -150,54 -168,133 -1,5 -5,9 -10,11 -5,1 -10,0 -14,-4 -4,-3 -5,-8 -4,-13 21,-92 102,-158 196,-159 94,-1 177,67 200,159z"/>
  <path class="fil0 str0" d="M7730 16847c-1,-5 -5,-10 -10,-11 -5,-1 -10,0 -14,3 -4,4 -5,9 -4,14 23,92 106,156 200,155 95,-1 175,-63 196,-155 1,-5 0,-10 -4,-14 -4,-3 -9,-4 -14,-3 -5,1 -9,6 -10,11 -18,78 -87,134 -168,135 -81,1 -152,-57 -172,-135z"/>
  <path class="fil0 str2" d="M15700 16730c41,0 75,33 75,75 0,41 -34,75 -75,75 -41,0 -75,-34 -75,-75 0,-42 34,-75 75,-75z"/>
  <path class="fil0 str2" d="M12800 16730c41,0 75,33 75,75 0,41 -34,75 -75,75 -41,0 -75,-34 -75,-75 0,-42 34,-75 75,-75z"/>
  <path class="fil0 str2" d="M13100 16730c41,0 75,33 75,75 0,41 -34,75 -75,75 -41,0 -75,-34 -75,-75 0,-42 34,-75 75,-75z"/>
  <path class="fil0 str2" d="M13400 16730c41,0 75,33 75,75 0,41 -34,75 -75,75 -41,0 -75,-34 -75,-75 0,-42 34,-75 75,-75z"/>
  <path class="fil0 str2" d="M14250 16730c41,0 75,33 75,75 0,41 -34,75 -75,75 -41,0 -75,-34 -75,-75 0,-42 34,-75 75,-75z"/>
  <path class="fil0 str2" d="M14550 16730c41,0 75,33 75,75 0,41 -34,75 -75,75 -41,0 -75,-34 -75,-75 0,-42 34,-75 75,-75z"/>
  <path class="fil0 str0" d="M8946 16567c0,294 0,80 0,476 0,5 2,10 7,12 4,3 10,3 14,0 5,-2 8,-7 8,-12 0,0 0,-476 0,-476 0,-5 -3,-10 -8,-13 -4,-2 -10,-2 -14,0 -5,3 -7,8 -7,13z"/>
  <path class="fil0 str0" d="M9186 16567c0,294 0,80 0,476 0,5 2,10 7,12 4,3 10,3 14,0 5,-2 8,-7 8,-12 0,0 0,-476 0,-476 0,-5 -3,-10 -8,-13 -4,-2 -10,-2 -14,0 -5,3 -7,8 -7,13z"/>
  <path class="fil0 str0" d="M9425 16566c0,294 0,80 0,476 0,6 3,10 8,13 4,3 10,3 14,0 5,-3 7,-7 7,-13 0,0 0,-476 0,-476 0,-5 -2,-10 -7,-12 -4,-3 -10,-3 -14,0 -5,2 -8,7 -8,12z"/>
  <path class="fil0 str0" d="M10366 16566c0,295 0,81 0,477 0,5 2,10 7,12 4,3 10,3 14,0 5,-2 8,-7 8,-12 0,0 0,-477 0,-477 0,-5 -3,-9 -8,-12 -4,-3 -10,-3 -14,0 -5,3 -7,7 -7,12z"/>
  <path class="fil0 str0" d="M10605 16566c0,295 0,81 0,477 0,5 3,10 8,12 4,3 10,3 14,0 5,-2 7,-7 7,-12 0,0 0,-477 0,-477 0,-5 -2,-9 -7,-12 -4,-3 -10,-3 -14,0 -5,3 -8,7 -8,12z"/>
  <path class="fil0 str0" d="M11786 16566c0,295 0,81 0,477 0,5 2,10 7,12 4,3 10,3 14,0 5,-2 7,-7 7,-12 0,0 0,-477 0,-477 0,-5 -2,-9 -7,-12 -4,-3 -10,-3 -14,0 -5,3 -7,7 -7,12z"/>
  <path class="fil0 str0" d="M5062 18359c294,0 80,0 476,0 5,0 10,-3 13,-7 2,-5 2,-10 0,-15 -3,-4 -8,-7 -13,-7 0,0 -476,0 -476,0 -5,0 -10,3 -12,7 -3,5 -3,10 0,15 2,4 7,7 12,7z"/>
  <path class="fil0 str0" d="M5062 18119c294,0 80,0 476,0 5,0 10,-3 13,-7 2,-5 2,-10 0,-15 -3,-4 -8,-7 -13,-7 0,0 -476,0 -476,0 -5,0 -10,3 -12,7 -3,5 -3,10 0,15 2,4 7,7 12,7z"/>
  <path class="fil0 str0" d="M5062 17879c294,0 80,0 476,0 5,0 10,-3 12,-7 3,-5 3,-10 0,-15 -2,-4 -7,-7 -12,-7 0,0 -476,0 -476,0 -5,0 -10,3 -13,7 -2,5 -2,10 0,15 3,4 8,7 13,7z"/>
  <path class="fil0 str0" d="M6362 18239c294,0 80,0 476,0 5,0 10,-3 13,-7 2,-5 2,-10 0,-15 -3,-4 -8,-7 -13,-7 0,0 -476,0 -476,0 -5,0 -10,3 -13,7 -2,5 -2,10 0,15 3,4 8,7 13,7z"/>
  <path class="fil0 str0" d="M6362 17999c294,0 80,0 476,0 5,0 10,-3 13,-7 2,-5 2,-10 0,-15 -3,-4 -8,-7 -13,-7 0,0 -476,0 -476,0 -5,0 -10,3 -13,7 -2,5 -2,10 0,15 3,4 8,7 13,7z"/>
  <path class="fil0 str0" d="M7662 18119c294,0 80,0 476,0 5,0 10,-3 13,-7 2,-5 2,-10 0,-15 -3,-4 -8,-7 -13,-7 0,0 -476,0 -476,0 -5,0 -10,3 -13,7 -2,5 -2,10 0,15 3,4 8,7 13,7z"/>
  <path class="fil0 str3" d="M8830 18244c0,0 -35,0 -35,0 0,0 0,-223 0,-223 -8,8 -19,16 -33,24 -14,8 -26,14 -37,18 0,0 0,-33 0,-33 20,-10 37,-21 51,-34 15,-13 25,-26 32,-38 0,0 22,0 22,0 0,0 0,286 0,286z"/>
  <path class="fil0 str3" d="M8920 18104c0,-34 4,-61 10,-82 7,-20 18,-36 31,-47 14,-11 31,-17 52,-17 15,0 28,3 40,9 12,7 21,15 29,27 7,12 13,26 17,42 4,17 6,39 6,68 0,33 -3,60 -10,81 -7,20 -17,36 -31,47 -13,11 -30,17 -51,17 -28,0 -49,-10 -65,-29 -19,-24 -28,-63 -28,-116zm36 0c0,47 5,78 16,93 11,16 25,23 41,23 16,0 29,-7 40,-23 11,-15 17,-46 17,-93 0,-47 -6,-78 -17,-94 -11,-15 -24,-23 -41,-23 -16,0 -29,7 -38,21 -12,17 -18,49 -18,96z"/>
  <path class="fil0 str3" d="M9141 18104c0,-34 4,-61 11,-82 7,-20 17,-36 31,-47 13,-11 30,-17 51,-17 15,0 29,3 40,9 12,7 21,15 29,27 7,12 13,26 17,42 5,17 7,39 7,68 0,33 -4,60 -11,81 -6,20 -17,36 -30,47 -14,11 -31,17 -52,17 -27,0 -49,-10 -65,-29 -18,-24 -28,-63 -28,-116zm36 0c0,47 6,78 17,93 10,16 24,23 40,23 16,0 30,-7 41,-23 11,-15 16,-46 16,-93 0,-47 -5,-78 -16,-94 -11,-15 -25,-23 -41,-23 -16,0 -29,7 -39,21 -12,17 -18,49 -18,96z"/>
  <path class="fil0 str3" d="M9369 18028c0,-21 5,-38 15,-52 11,-14 26,-21 45,-21 18,0 33,6 45,19 11,12 17,31 17,56 0,24 -6,42 -18,55 -12,13 -26,20 -44,20 -17,0 -31,-6 -43,-19 -11,-13 -17,-32 -17,-58zm61 -49c-9,0 -16,4 -22,11 -5,8 -8,21 -8,41 0,18 3,31 8,39 6,7 13,11 22,11 9,0 16,-4 22,-12 6,-7 9,-21 9,-41 0,-18 -3,-31 -9,-38 -6,-7 -13,-11 -22,-11z"/>
  <path class="fil0 str3" d="M9430 18255c0,0 156,-300 156,-300 0,0 28,0 28,0 0,0 -155,300 -155,300 0,0 -29,0 -29,0z"/>
  <path class="fil0 str3" d="M9553 18177c0,-20 5,-37 15,-52 10,-14 25,-21 45,-21 18,0 33,7 44,19 12,13 18,32 18,56 0,24 -6,43 -18,56 -12,13 -26,20 -44,20 -17,0 -31,-7 -43,-20 -11,-13 -17,-32 -17,-58zm61 -49c-9,0 -16,4 -22,12 -6,7 -9,21 -9,41 0,18 3,31 9,38 6,8 13,11 22,11 9,0 16,-3 22,-11 5,-7 8,-21 8,-41 0,-18 -3,-31 -8,-38 -6,-8 -13,-12 -22,-12z"/>
  <path class="fil0 str3" d="M10124 17996c0,0 0,-33 0,-33 0,0 184,0 184,0 0,0 0,27 0,27 -18,19 -36,45 -54,77 -18,32 -32,65 -41,99 -7,24 -12,50 -14,78 0,0 -36,0 -36,0 1,-22 5,-49 14,-81 8,-32 20,-63 36,-92 15,-30 32,-54 50,-75 0,0 -139,0 -139,0z"/>
  <path class="fil0 str3" d="M10343 18169c0,0 36,-2 36,-2 3,17 9,31 19,40 10,9 22,13 36,13 17,0 32,-6 43,-19 12,-12 17,-29 17,-50 0,-20 -5,-36 -16,-47 -11,-12 -26,-18 -44,-18 -11,0 -22,3 -31,8 -9,5 -16,12 -21,20 0,0 -33,-5 -33,-5 0,0 28,-146 28,-146 0,0 141,0 141,0 0,0 0,33 0,33 0,0 -113,0 -113,0 0,0 -16,77 -16,77 17,-12 35,-18 54,-18 25,0 46,9 63,26 17,17 25,39 25,67 0,25 -7,48 -22,66 -18,23 -43,35 -75,35 -26,0 -47,-7 -63,-22 -16,-14 -26,-34 -28,-58z"/>
  <path class="fil0 str3" d="M10570 18028c0,-21 6,-38 16,-52 10,-14 25,-21 45,-21 17,0 32,6 44,19 12,12 18,31 18,56 0,24 -6,42 -18,55 -12,13 -27,20 -44,20 -17,0 -32,-6 -43,-19 -12,-13 -18,-32 -18,-58zm62 -49c-9,0 -16,4 -22,11 -6,8 -9,21 -9,41 0,18 3,31 9,39 6,7 13,11 22,11 8,0 16,-4 21,-12 6,-7 9,-21 9,-41 0,-18 -3,-31 -9,-38 -6,-7 -13,-11 -21,-11z"/>
  <path class="fil0 str3" d="M10632 18255c0,0 155,-300 155,-300 0,0 29,0 29,0 0,0 -155,300 -155,300 0,0 -29,0 -29,0z"/>
  <path class="fil0 str3" d="M10754 18177c0,-20 5,-37 16,-52 10,-14 25,-21 44,-21 18,0 33,7 45,19 12,13 17,32 17,56 0,24 -5,43 -17,56 -12,13 -27,20 -44,20 -18,0 -32,-7 -43,-20 -12,-13 -18,-32 -18,-58zm61 -49c-8,0 -16,4 -21,12 -6,7 -9,21 -9,41 0,18 3,31 9,38 5,8 13,11 21,11 9,0 16,-3 22,-11 6,-7 9,-21 9,-41 0,-18 -3,-31 -9,-38 -6,-8 -13,-12 -22,-12z"/>
  <path class="fil0 str3" d="M11423 18169c0,0 36,-2 36,-2 3,17 9,31 19,40 10,9 22,13 36,13 17,0 31,-6 43,-19 11,-12 17,-29 17,-50 0,-20 -5,-36 -16,-47 -12,-12 -26,-18 -44,-18 -12,0 -22,3 -31,8 -9,5 -16,12 -21,20 0,0 -33,-5 -33,-5 0,0 27,-146 27,-146 0,0 142,0 142,0 0,0 0,33 0,33 0,0 -114,0 -114,0 0,0 -15,77 -15,77 17,-12 35,-18 54,-18 25,0 46,9 63,26 17,17 25,39 25,67 0,25 -7,48 -22,66 -19,23 -44,35 -75,35 -26,0 -47,-7 -63,-22 -17,-14 -26,-34 -28,-58z"/>
  <path class="fil0 str3" d="M11644 18104c0,-34 3,-61 10,-82 7,-20 17,-36 31,-47 14,-11 31,-17 52,-17 15,0 28,3 40,9 11,7 21,15 28,27 8,12 14,26 18,42 4,17 6,39 6,68 0,33 -3,60 -10,81 -7,20 -17,36 -31,47 -13,11 -31,17 -51,17 -28,0 -49,-10 -65,-29 -19,-24 -28,-63 -28,-116zm36 0c0,47 5,78 16,93 11,16 24,23 41,23 16,0 29,-7 40,-23 11,-15 16,-46 16,-93 0,-47 -5,-78 -16,-94 -11,-15 -24,-23 -41,-23 -16,0 -29,7 -38,21 -12,17 -18,49 -18,96z"/>
  <path class="fil0 str3" d="M11871 18028c0,-21 6,-38 16,-52 10,-14 25,-21 45,-21 17,0 32,6 44,19 12,12 18,31 18,56 0,24 -6,42 -18,55 -12,13 -27,20 -44,20 -17,0 -32,-6 -43,-19 -12,-13 -18,-32 -18,-58zm61 -49c-8,0 -15,4 -21,11 -6,8 -9,21 -9,41 0,18 3,31 9,39 6,7 13,11 21,11 9,0 17,-4 22,-12 6,-7 9,-21 9,-41 0,-18 -3,-31 -9,-38 -6,-7 -13,-11 -22,-11z"/>
  <path class="fil0 str3" d="M11933 18255c0,0 155,-300 155,-300 0,0 29,0 29,0 0,0 -155,300 -155,300 0,0 -29,0 -29,0z"/>
  <path class="fil0 str3" d="M12055 18177c0,-20 5,-37 16,-52 10,-14 25,-21 44,-21 18,0 33,7 45,19 12,13 17,32 17,56 0,24 -5,43 -17,56 -12,13 -27,20 -44,20 -18,0 -32,-7 -43,-20 -12,-13 -18,-32 -18,-58zm61 -49c-8,0 -16,4 -21,12 -6,7 -9,21 -9,41 0,18 3,31 9,38 5,8 13,11 21,11 9,0 16,-3 22,-11 6,-7 9,-21 9,-41 0,-18 -3,-31 -9,-38 -6,-8 -13,-12 -22,-12z"/>
  <path class="fil1 str4" d="M10033 11436c0,0 935,0 935,0"/>
  <path class="fil1 str4" d="M10496 11633c0,0 0,140 0,140"/>
  <path class="fil1 str4" d="M10671 11764c0,0 -70,-121 -70,-121"/>
  <path class="fil1 str4" d="M10393 11643c0,0 -70,121 -70,121"/>
  <path class="fil1 str4" d="M10760 11436c0,0 0,135 0,135 0,0 -520,0 -520,0 0,0 0,-135 0,-135"/>
  <g id="_276167240">
   <path class="fil1 str4" d="M8984 14500c0,-7 1,-14 1,-20 0,-70 -33,-126 -73,-126 -40,0 -73,56 -73,126 0,6 0,12 1,18"/>
   <path class="fil0 str4" d="M8912 13910c0,0 0,444 0,444 0,0 0,-444 0,-444z"/>
   <path class="fil1 str4" d="M9272 14500c1,-7 1,-14 1,-20 0,-70 -33,-126 -73,-126 -40,0 -73,56 -73,126 0,6 0,12 1,18"/>
   <path class="fil0 str4" d="M9200 13910c0,0 0,444 0,444 0,0 0,-444 0,-444z"/>
   <path class="fil1 str4" d="M9560 14500c1,-7 1,-14 1,-20 0,-70 -33,-126 -73,-126 -40,0 -73,56 -73,126 0,6 1,12 1,18"/>
   <path class="fil0 str4" d="M9488 13910c0,0 0,444 0,444 0,0 0,-444 0,-444z"/>
   <path class="fil0 str4" d="M8775 13910c0,0 850,0 850,0 0,0 -850,0 -850,0z"/>
  </g>
  <g id="_276586248">
   <path class="fil0 str4" d="M6598 15196c0,0 5,457 5,457 0,0 -5,-457 -5,-457z"/>
   <path class="fil1 str4" d="M6847 15539c0,0 -88,365 -88,365 0,0 -328,1 -328,1 0,0 -78,-372 -78,-372"/>
   <path class="fil1 str4" d="M6508 15105c-1,4 -2,8 -2,12 0,44 41,79 92,79 51,0 92,-35 92,-79 0,-4 0,-8 -1,-12"/>
  </g>
  <path class="fil0 str4" d="M11803 15905c0,0 0,-675 0,-675 0,0 0,675 0,675z"/>
  <path class="fil1 str4" d="M11521 15518c0,0 100,-413 100,-413 0,0 371,0 371,0 0,0 88,419 88,419"/>
  <path class="fil1 str4" d="M11930 15904c0,0 -254,0 -254,0"/>
  <path class="fil1 str4" d="M11610 15525c0,0 -107,0 -107,0"/>
  <path class="fil1 str4" d="M12097 15525c0,0 -107,0 -107,0"/>
  <path class="fil0 str4" d="M14400 12515c0,0 0,406 0,406 0,0 0,-406 0,-406z"/>
  <path class="fil1 str4" d="M14328 12515c0,0 145,0 145,0"/>
  <path class="fil1 str4" d="M14060 13215c46,-171 181,-294 340,-294 159,0 294,123 340,294"/>
  <path class="fil1 str4" d="M14157 13215c0,0 475,0 475,0"/>
  <path class="fil0 str4" d="M5300 15186c0,0 0,317 0,317 0,0 0,-317 0,-317z"/>
  <path class="fil1 str4" d="M4952 15805c47,-175 185,-302 348,-302 163,0 301,127 349,302"/>
  <path class="fil1 str4" d="M5384 15105c0,0 -42,60 -42,60 0,0 -42,61 -42,61 0,0 -42,-61 -42,-61 0,0 -42,-60 -42,-60"/>
  <path class="fil0 str4" d="M7900 15105c0,0 0,312 0,312 0,0 0,-312 0,-312z"/>
  <path class="fil1 str4" d="M7819 15635c0,0 0,-218 0,-218 0,0 162,0 162,0 0,0 0,218 0,218"/>
  <path class="fil1 str4" d="M7981 15622c0,0 287,198 287,198 0,0 -149,0 -149,0"/>
  <path class="fil1 str4" d="M7670 15820c0,0 -138,0 -138,0 0,0 287,-198 287,-198"/>
  <path class="fil1 str4" d="M7811 15796c0,5 -1,10 -1,15 0,52 40,94 90,94 50,0 90,-42 90,-94 0,-5 -1,-9 -1,-14"/>
  <g id="_276583128">
   <path class="fil0 str4" d="M7677 13882c0,0 0,367 0,367 0,0 0,-367 0,-367z"/>
   <path class="fil0 str4" d="M7900 13882c0,0 0,367 0,367 0,0 0,-367 0,-367z"/>
   <path class="fil0 str4" d="M8123 13882c0,0 0,367 0,367 0,0 0,-367 0,-367z"/>
   <path class="fil0 str4" d="M7541 13882c0,0 718,0 718,0 0,0 -718,0 -718,0z"/>
   <path class="fil1 str4" d="M7627 14527c0,0 0,-276 0,-276 0,0 100,0 100,0 0,0 0,276 0,276"/>
   <path class="fil1 str4" d="M7850 14527c0,0 0,-276 0,-276 0,0 100,0 100,0 0,0 0,276 0,276"/>
   <path class="fil1 str4" d="M8073 14527c0,0 0,-276 0,-276 0,0 100,0 100,0 0,0 0,276 0,276"/>
  </g>
  <path class="fil0 str4" d="M10209 13911c0,0 0,422 0,422 0,0 0,-422 0,-422z"/>
  <path class="fil0 str4" d="M10500 13911c0,0 0,422 0,422 0,0 0,-422 0,-422z"/>
  <path class="fil0 str4" d="M10791 13911c0,0 0,422 0,422 0,0 0,-422 0,-422z"/>
  <path class="fil0 str4" d="M10100 13911c0,0 800,0 800,0 0,0 -800,0 -800,0z"/>
  <path class="fil1 str4" d="M10106 14499c0,0 52,-89 52,-89 0,0 51,-88 51,-88 0,0 52,88 52,88 0,0 51,89 51,89"/>
  <path class="fil1 str4" d="M10397 14499c0,0 52,-89 52,-89 0,0 51,-88 51,-88 0,0 51,88 51,88 0,0 52,89 52,89"/>
  <path class="fil1 str4" d="M10688 14499c0,0 51,-89 51,-89 0,0 52,-88 52,-88 0,0 51,88 51,88 0,0 52,89 52,89"/>
  <path class="fil0 str4" d="M10590 13154c0,0 0,-448 0,-448 0,0 0,448 0,448z"/>
  <path class="fil1 str4" d="M10377 12861c0,0 76,-314 76,-314 0,0 281,0 281,0 0,0 67,318 67,318"/>
  <path class="fil1 str4" d="M10590 13154c0,0 -404,0 -404,0"/>
  <path class="fil1 str4" d="M10445 12866c0,0 -82,0 -82,0"/>
  <path class="fil1 str4" d="M10814 12866c0,0 -82,0 -82,0"/>
  <path class="fil0 str4" d="M10186 13262c0,0 0,-233 0,-233 0,0 0,233 0,233z"/>
  <g id="_275534104">
   <path class="fil0 str4" d="M15698 13846c0,0 5,426 5,426 0,0 -5,-426 -5,-426z"/>
   <path class="fil0 str4" d="M15977 14210c0,0 4,335 4,335 0,0 -4,-335 -4,-335z"/>
   <path class="fil0 str4" d="M15416 14210c0,0 3,335 3,335 0,0 -3,-335 -3,-335z"/>
   <path class="fil0 str4" d="M15817 14226c0,0 167,-2 167,-2 0,0 -167,2 -167,2z"/>
   <path class="fil0 str4" d="M15417 14226c0,0 167,-2 167,-2 0,0 -167,2 -167,2z"/>
   <path class="fil0 str4" d="M15541 14545c0,0 324,-1 324,-1 0,0 -324,1 -324,1z"/>
   <path class="fil0 str4" d="M15601 13846c0,0 194,0 194,0 0,0 -194,0 -194,0z"/>
   <path class="fil0 str4" d="M15601 13745c0,0 0,96 0,96 0,0 0,-96 0,-96z"/>
   <path class="fil0 str4" d="M15795 13745c0,0 0,101 0,101 0,0 0,-101 0,-101z"/>
  </g>
  <path class="fil0 str4" d="M14398 13855c0,0 0,589 0,589 0,0 0,-589 0,-589z"/>
  <path class="fil1 str4" d="M14644 14193c0,0 -87,361 -87,361 0,0 -324,1 -324,1 0,0 -77,-367 -77,-367"/>
  <path class="fil1 str4" d="M14324 13855c0,0 148,0 148,0"/>
  <path class="fil0 str3" d="M12909 18211c0,0 0,33 0,33 0,0 -189,0 -189,0 0,-8 1,-16 4,-24 5,-13 13,-26 23,-38 11,-12 26,-27 46,-43 31,-25 52,-45 63,-60 11,-15 16,-29 16,-42 0,-14 -5,-26 -15,-36 -10,-9 -22,-14 -38,-14 -17,0 -31,5 -41,15 -10,10 -15,24 -15,42 0,0 -36,-3 -36,-3 2,-27 11,-48 28,-62 16,-14 37,-21 64,-21 28,0 49,8 65,23 16,15 24,34 24,56 0,12 -2,23 -7,34 -4,11 -12,23 -23,35 -11,12 -29,29 -54,50 -21,18 -35,30 -40,36 -6,6 -11,12 -15,19 0,0 140,0 140,0z"/>
  <path class="fil0 str3" d="M12946 18169c0,0 37,-2 37,-2 3,17 9,31 19,40 10,9 22,13 36,13 17,0 31,-6 43,-19 11,-12 17,-29 17,-50 0,-20 -5,-36 -17,-47 -11,-12 -25,-18 -44,-18 -11,0 -21,3 -30,8 -9,5 -16,12 -21,20 0,0 -33,-5 -33,-5 0,0 27,-146 27,-146 0,0 142,0 142,0 0,0 0,33 0,33 0,0 -114,0 -114,0 0,0 -15,77 -15,77 17,-12 35,-18 54,-18 24,0 45,9 62,26 17,17 26,39 26,67 0,25 -7,48 -22,66 -19,23 -44,35 -75,35 -26,0 -47,-7 -64,-22 -16,-14 -25,-34 -28,-58z"/>
  <path class="fil0 str3" d="M13174 18028c0,-21 5,-38 15,-52 11,-14 26,-21 45,-21 18,0 33,6 45,19 11,12 17,31 17,56 0,24 -6,42 -18,55 -11,13 -26,20 -43,20 -18,0 -32,-6 -44,-19 -11,-13 -17,-32 -17,-58zm61 -49c-9,0 -16,4 -22,11 -5,8 -8,21 -8,41 0,18 3,31 8,39 6,7 14,11 22,11 9,0 16,-4 22,-12 6,-7 9,-21 9,-41 0,-18 -3,-31 -9,-38 -6,-7 -13,-11 -22,-11z"/>
  <path class="fil0 str3" d="M13235 18255c0,0 156,-300 156,-300 0,0 28,0 28,0 0,0 -155,300 -155,300 0,0 -29,0 -29,0z"/>
  <path class="fil0 str3" d="M13358 18177c0,-20 5,-37 15,-52 11,-14 25,-21 45,-21 18,0 33,7 44,19 12,13 18,32 18,56 0,24 -6,43 -18,56 -12,13 -26,20 -44,20 -17,0 -31,-7 -43,-20 -11,-13 -17,-32 -17,-58zm61 -49c-9,0 -16,4 -22,12 -6,7 -8,21 -8,41 0,18 2,31 8,38 6,8 13,11 22,11 9,0 16,-3 22,-11 6,-7 8,-21 8,-41 0,-18 -2,-31 -8,-38 -6,-8 -13,-12 -22,-12z"/>
  <path class="fil0 str0" d="M8058 19405c0,0 -371,229 -371,229 0,0 0,35 0,35 0,0 426,-264 426,-264 0,0 -426,-265 -426,-265 0,0 0,35 0,35 0,0 371,230 371,230z"/>
  <path class="fil0 str0" d="M12745 14309c0,0 -43,0 -43,0 0,0 23,134 23,134 0,0 59,0 59,0 0,0 60,0 60,0 0,0 23,-134 23,-134 0,0 -43,0 -43,0 -6,0 -10,-3 -13,-7 -3,-5 -3,-10 0,-15 3,-4 7,-7 13,-7 0,0 78,0 78,0 0,0 -34,192 -34,192 0,0 -84,0 -84,0 0,0 -83,0 -83,0 0,0 -34,-192 -34,-192 0,0 78,0 78,0 5,0 10,3 13,7 2,5 2,10 0,15 -3,4 -8,7 -13,7z"/>
  <path class="fil0 str0" d="M13061 14309c0,0 -44,0 -44,0 0,0 24,134 24,134 0,0 59,0 59,0 0,0 59,0 59,0 0,0 24,-134 24,-134 0,0 -44,0 -44,0 -5,0 -10,-3 -12,-7 -3,-5 -3,-10 0,-15 2,-4 7,-7 12,-7 0,0 78,0 78,0 0,0 -33,192 -33,192 0,0 -84,0 -84,0 0,0 -84,0 -84,0 0,0 -33,-192 -33,-192 0,0 78,0 78,0 5,0 10,3 12,7 3,5 3,10 0,15 -2,4 -7,7 -12,7z"/>
  <path class="fil0 str0" d="M13377 14309c0,0 -44,0 -44,0 0,0 23,134 23,134 0,0 60,0 60,0 0,0 59,0 59,0 0,0 23,-134 23,-134 0,0 -43,0 -43,0 -5,0 -10,-3 -13,-7 -2,-5 -2,-10 0,-15 3,-4 8,-7 13,-7 0,0 78,0 78,0 0,0 -34,192 -34,192 0,0 -83,0 -83,0 0,0 -84,0 -84,0 0,0 -34,-192 -34,-192 0,0 79,0 79,0 5,0 9,3 12,7 3,5 3,10 0,15 -3,4 -7,7 -12,7z"/>
  <path class="fil0 str0" d="M13511 13967c5,0 10,-3 13,-7 2,-5 2,-10 0,-15 -3,-4 -8,-7 -13,-7 0,0 -822,0 -822,0 -5,0 -10,3 -13,7 -2,5 -2,10 0,15 3,4 8,7 13,7 0,0 81,0 81,0 0,0 0,175 0,175 0,5 3,10 7,12 5,3 10,3 15,0 4,-2 7,-7 7,-12 0,0 0,-175 0,-175 0,0 287,0 287,0 0,0 0,175 0,175 0,5 2,10 7,12 4,3 10,3 14,0 5,-2 8,-7 8,-12 0,0 0,-175 0,-175 0,0 286,0 286,0 0,0 0,175 0,175 0,5 3,10 7,12 5,3 10,3 15,0 4,-2 7,-7 7,-12 0,0 0,-175 0,-175 0,0 81,0 81,0z"/>
  <path class="fil0 str0" d="M12799 13942c0,-2 -3,-3 -7,-4 -5,-1 -10,-1 -15,0 -4,1 -7,2 -7,4 0,0 0,292 0,292 0,2 3,3 7,4 5,1 10,1 15,0 4,-1 7,-2 7,-4 0,-134 0,-245 0,-292z"/>
  <path class="fil0 str0" d="M13115 13942c0,-2 -3,-3 -8,-4 -4,-1 -10,-1 -14,0 -5,1 -7,2 -7,4 0,0 0,292 0,292 0,2 2,3 7,4 4,1 10,1 14,0 5,-1 8,-2 8,-4 0,-134 0,-245 0,-292z"/>
  <path class="fil0 str0" d="M13430 13942c0,-2 -3,-3 -7,-4 -5,-1 -10,-1 -15,0 -4,1 -7,2 -7,4 0,0 0,292 0,292 0,2 3,3 7,4 5,1 10,1 15,0 4,-1 7,-2 7,-4 0,-134 0,-245 0,-292z"/>
  <path class="fil0" d="M4851 11781c0,0 0,-353 0,-353 0,0 47,0 47,0 0,0 0,312 0,312 0,0 174,0 174,0 0,0 0,41 0,41 0,0 -221,0 -221,0z"/>
  <path class="fil0" d="M5128 11781c0,0 0,-353 0,-353 0,0 256,0 256,0 0,0 0,41 0,41 0,0 -209,0 -209,0 0,0 0,109 0,109 0,0 195,0 195,0 0,0 0,41 0,41 0,0 -195,0 -195,0 0,0 0,121 0,121 0,0 217,0 217,0 0,0 0,41 0,41 0,0 -264,0 -264,0z"/>
  <path class="fil0" d="M5457 11781c0,0 0,-353 0,-353 0,0 122,0 122,0 27,0 48,1 63,5 20,4 37,13 52,25 18,16 32,36 41,61 10,24 14,52 14,84 0,27 -3,50 -9,71 -6,21 -14,38 -24,52 -10,13 -21,24 -33,32 -11,7 -25,13 -42,17 -16,4 -35,6 -57,6 0,0 -127,0 -127,0zm47 -41c0,0 75,0 75,0 23,0 42,-2 55,-7 13,-4 24,-10 32,-18 11,-11 19,-26 26,-45 6,-19 9,-41 9,-68 0,-37 -6,-66 -18,-86 -12,-19 -27,-33 -45,-40 -12,-4 -32,-7 -60,-7 0,0 -74,0 -74,0 0,0 0,271 0,271z"/>
  <path class="fil1 str5" d="M8807 8844c0,0 0,16 0,16 5,10 31,131 31,145 -1,14 -26,134 -31,144 0,0 0,14 0,14 11,12 16,15 38,13 21,-1 21,-7 29,-22 12,-22 25,-47 36,-71 0,0 168,0 168,0 0,0 -79,195 -79,195 -14,31 -46,93 51,66 25,-7 78,-87 96,-109 21,-27 37,-49 59,-75 0,0 59,-77 59,-77 67,0 135,-1 202,0 35,0 62,0 87,-17 55,-37 52,-90 1,-124 -27,-18 -47,-17 -84,-17 -51,0 -160,6 -205,-1 -15,-8 -184,-248 -210,-259 -16,-6 -47,-8 -64,-5 -26,14 17,92 33,131 9,23 17,44 26,66 8,19 23,49 28,68 0,0 -169,0 -169,0 -8,-23 -19,-41 -30,-63 -17,-31 -20,-34 -63,-30 0,0 -9,12 -9,12z"/>
  <path class="fil0 str0" d="M13323 10197c0,0 176,0 176,0 0,0 0,-100 0,-100 0,0 -798,0 -798,0 0,0 0,100 0,100 0,0 176,0 176,0 6,0 11,3 14,8 3,5 3,11 0,16 -3,5 -8,8 -14,8 0,0 -207,0 -207,0 0,0 0,-163 0,-163 0,0 860,0 860,0 0,0 0,163 0,163 0,0 -207,0 -207,0 -6,0 -11,-3 -14,-8 -3,-5 -3,-11 0,-16 3,-5 8,-8 14,-8z"/>
  <path class="fil0 str0" d="M13174 10198c0,0 -74,-1 -74,-1 0,0 -75,0 -75,0 -6,0 -11,3 -14,8 -2,5 -2,11 0,16 3,4 8,7 14,8 0,0 75,0 75,0 0,0 74,0 74,0 6,0 11,-3 14,-8 3,-5 3,-11 0,-16 -3,-4 -8,-7 -14,-7z"/>
  <path class="fil0 str0" d="M12711 10285c0,0 0,22 0,22 0,0 -1,23 -1,23 0,1 3,3 8,4 5,0 11,0 16,0 5,-1 8,-3 8,-4 0,0 0,-23 0,-23 0,0 0,-22 0,-22 0,-2 -3,-3 -8,-4 -5,-1 -11,-1 -15,0 -5,1 -8,2 -8,4z"/>
  <path class="fil0 str0" d="M12841 10389c0,0 0,22 0,22 0,0 0,22 0,22 0,2 3,3 8,4 4,1 10,1 15,0 5,-1 8,-2 8,-4 0,0 0,-22 0,-22 0,0 0,-22 0,-22 0,-2 -3,-4 -7,-4 -5,-1 -11,-1 -16,0 -5,0 -8,2 -8,4z"/>
  <path class="fil0 str0" d="M12959 10285c0,0 0,22 0,22 0,0 0,23 0,23 0,1 3,3 8,4 5,0 10,0 15,0 5,-1 8,-3 8,-4 0,0 0,-23 0,-23 0,0 1,-22 1,-22 0,-2 -3,-3 -8,-4 -5,-1 -11,-1 -16,0 -5,1 -8,2 -8,4z"/>
  <path class="fil0 str0" d="M13073 10389c0,0 0,22 0,22 0,0 0,22 0,22 0,2 3,3 8,4 5,1 11,1 16,0 4,-1 7,-2 7,-4 0,0 1,-22 1,-22 0,0 0,-22 0,-22 0,-2 -3,-4 -8,-4 -5,-1 -11,-1 -16,0 -5,0 -8,2 -8,4z"/>
  <path class="fil0 str0" d="M13188 10285c0,0 -1,22 -1,22 0,0 0,23 0,23 0,1 3,3 8,4 5,0 11,0 16,0 5,-1 8,-3 8,-4 0,0 0,-23 0,-23 0,0 0,-22 0,-22 0,-2 -3,-3 -8,-4 -5,-1 -11,-1 -16,0 -4,1 -7,2 -7,4z"/>
  <path class="fil0 str0" d="M13302 10389c0,0 0,22 0,22 0,0 -1,22 -1,22 0,2 3,3 8,4 5,1 11,1 16,0 5,-1 8,-2 8,-4 0,0 0,-22 0,-22 0,0 0,-22 0,-22 0,-2 -3,-4 -8,-4 -5,-1 -11,-1 -15,0 -5,0 -8,2 -8,4z"/>
  <path class="fil0 str0" d="M13432 10285c0,0 0,22 0,22 0,0 0,23 0,23 0,1 3,3 8,4 4,0 10,0 15,0 5,-1 8,-3 8,-4 0,0 0,-23 0,-23 0,0 1,-22 1,-22 0,-2 -3,-3 -8,-4 -5,-1 -11,-1 -16,0 -5,1 -8,2 -8,4z"/>
  <path class="fil0 str0" d="M13200 10494c0,0 0,22 0,22 0,0 -1,22 -1,22 0,2 3,4 8,4 5,1 11,1 16,0 5,0 8,-2 8,-4 0,0 0,-22 0,-22 0,0 0,-22 0,-22 0,-2 -3,-3 -8,-4 -4,-1 -10,-1 -15,0 -5,1 -8,2 -8,4z"/>
  <path class="fil0 str0" d="M12955 10494c0,0 0,22 0,22 0,0 0,22 0,22 0,2 3,4 8,4 4,1 10,1 15,0 5,0 8,-2 8,-4 0,0 0,-22 0,-22 0,0 1,-22 1,-22 0,-2 -3,-3 -8,-4 -5,-1 -11,-1 -16,0 -5,1 -8,2 -8,4z"/>
  <path class="fil0 str0" d="M13382 10494c0,0 0,22 0,22 0,0 0,22 0,22 0,2 3,4 8,4 4,1 10,1 15,0 5,0 8,-2 8,-4 0,0 0,-22 0,-22 0,0 0,-22 0,-22 0,-2 -3,-3 -7,-4 -5,-1 -11,-1 -16,0 -5,1 -8,2 -8,4z"/>
  <path class="fil0 str0" d="M12755 10494c0,0 0,22 0,22 0,0 0,22 0,22 0,2 3,4 8,4 5,1 11,1 15,0 5,0 8,-2 8,-4 0,0 1,-22 1,-22 0,0 0,-22 0,-22 0,-2 -3,-3 -8,-4 -5,-1 -11,-1 -16,0 -5,1 -8,2 -8,4z"/>
  <path class="fil0 str4" d="M15921 12586c0,0 0,418 0,418 0,0 0,-418 0,-418z"/>
  <path class="fil0 str4" d="M15479 12586c0,0 0,418 0,418 0,0 0,-418 0,-418z"/>
  <polygon class="fil1 str4" points="15311,13143 16089,13143 16089,13006 15311,13006 15311,13143 "/>
  <path class="fil0 str0" d="M6897 10013c0,0 -594,0 -594,0 -5,0 -10,2 -12,7 -3,4 -3,10 0,14 2,5 7,8 12,8 0,0 594,0 594,0 5,0 10,-3 12,-8 3,-4 3,-10 0,-14 -2,-5 -7,-7 -12,-7z"/>
  <path class="fil0 str0" d="M6302 10582c0,0 0,-441 0,-441 0,-6 3,-10 7,-13 5,-3 10,-3 15,0 4,3 7,7 7,13 0,0 0,441 0,441 0,5 -3,10 -7,13 -5,2 -10,2 -15,0 -4,-3 -7,-8 -7,-13z"/>
  <path class="fil0 str0" d="M6424 10582c0,0 0,-441 0,-441 0,-6 3,-10 7,-13 5,-3 10,-3 15,0 4,3 7,7 7,13 0,0 0,441 0,441 0,5 -3,10 -7,13 -5,2 -10,2 -15,0 -4,-3 -7,-8 -7,-13z"/>
  <path class="fil0 str0" d="M6747 10582c0,0 0,-441 0,-441 0,-6 3,-10 7,-13 5,-3 10,-3 15,0 4,3 7,7 7,13 0,0 0,441 0,441 0,5 -3,10 -7,13 -5,2 -10,2 -15,0 -4,-3 -7,-8 -7,-13z"/>
  <path class="fil0 str0" d="M6869 10582c0,0 0,-441 0,-441 0,-6 3,-10 7,-13 5,-3 10,-3 15,0 4,3 7,7 7,13 0,0 0,441 0,441 0,5 -3,10 -7,13 -5,2 -10,2 -15,0 -4,-3 -7,-8 -7,-13z"/>
  <path class="fil0 str0" d="M6586 10582c0,0 0,-441 0,-441 0,-6 2,-10 7,-13 4,-3 10,-3 14,0 5,3 8,7 8,13 0,0 0,441 0,441 0,5 -3,10 -8,13 -4,2 -10,2 -14,0 -5,-3 -7,-8 -7,-13z"/>
  <path class="fil0 str0" d="M10202 10389c0,0 0,-442 0,-442 0,-5 3,-10 7,-12 5,-3 10,-3 15,0 4,2 7,7 7,12 0,0 0,442 0,442 0,5 -3,10 -7,12 -5,3 -10,3 -15,0 -4,-2 -7,-7 -7,-12z"/>
  <path class="fil0 str0" d="M10324 10389c0,0 0,-442 0,-442 0,-5 3,-10 7,-12 5,-3 10,-3 15,0 4,2 7,7 7,12 0,0 0,442 0,442 0,5 -3,10 -7,12 -5,3 -10,3 -15,0 -4,-2 -7,-7 -7,-12z"/>
  <path class="fil0 str0" d="M10647 10389c0,0 0,-442 0,-442 0,-5 3,-10 7,-12 5,-3 10,-3 15,0 4,2 7,7 7,12 0,0 0,442 0,442 0,5 -3,10 -7,12 -5,3 -10,3 -15,0 -4,-2 -7,-7 -7,-12z"/>
  <path class="fil0 str0" d="M10769 10389c0,0 0,-442 0,-442 0,-5 3,-10 7,-12 5,-3 10,-3 15,0 4,2 7,7 7,12 0,0 0,442 0,442 0,5 -3,10 -7,12 -5,3 -10,3 -15,0 -4,-2 -7,-7 -7,-12z"/>
  <path class="fil0 str0" d="M10486 10389c0,0 0,-442 0,-442 0,-5 2,-10 7,-12 4,-3 10,-3 14,0 5,2 8,7 8,12 0,0 0,442 0,442 0,5 -3,10 -8,12 -4,3 -10,3 -14,0 -5,-2 -7,-7 -7,-12z"/>
  <path class="fil0 str0" d="M10208 10575c0,0 225,0 225,0 2,0 4,2 5,7 1,4 1,10 0,14 -1,5 -3,8 -5,8 0,0 -225,0 -225,0 -2,0 -4,-3 -5,-8 -1,-4 -1,-10 0,-14 1,-5 3,-7 5,-7z"/>
  <path class="fil0 str0" d="M10344 10502c0,0 94,79 94,79 1,1 0,4 -3,8 -2,3 -6,8 -9,11 -3,3 -6,4 -7,4 0,0 -94,-80 -94,-80 -1,0 0,-3 3,-7 2,-4 6,-8 9,-11 3,-3 6,-4 7,-4z"/>
  <path class="fil0 str0" d="M10325 10654c0,0 94,-79 94,-79 1,-1 4,1 7,4 3,3 7,7 9,11 3,4 4,6 3,7 0,0 -94,79 -94,79 -1,1 -4,-1 -7,-4 -3,-3 -7,-7 -9,-11 -3,-4 -4,-6 -3,-7z"/>
  <path class="fil0 str0" d="M10792 10575c0,0 -225,0 -225,0 -2,0 -4,2 -5,7 -1,4 -1,10 0,14 1,5 3,8 5,8 0,0 225,0 225,0 2,0 4,-3 5,-8 1,-4 1,-10 0,-14 -1,-5 -3,-7 -5,-7z"/>
  <path class="fil0 str0" d="M10656 10502c0,0 -94,79 -94,79 -1,1 0,4 3,8 2,3 6,8 9,11 3,3 6,4 7,4 0,0 94,-80 94,-80 1,0 0,-3 -3,-7 -2,-4 -6,-8 -9,-11 -3,-3 -6,-4 -7,-4z"/>
  <path class="fil0 str0" d="M10675 10654c0,0 -94,-79 -94,-79 -1,-1 -4,1 -7,4 -3,3 -7,7 -9,11 -3,4 -4,6 -3,7 0,0 94,79 94,79 1,1 4,-1 7,-4 3,-3 7,-7 9,-11 3,-4 4,-6 3,-7z"/>
  <path class="fil0 str0" d="M8902 10389c0,0 0,-442 0,-442 0,-5 3,-10 7,-12 5,-3 10,-3 15,0 4,2 7,7 7,12 0,0 0,442 0,442 0,5 -3,10 -7,12 -5,3 -10,3 -15,0 -4,-2 -7,-7 -7,-12z"/>
  <path class="fil0 str0" d="M9024 10389c0,0 0,-442 0,-442 0,-5 3,-10 7,-12 5,-3 10,-3 15,0 4,2 7,7 7,12 0,0 0,442 0,442 0,5 -3,10 -7,12 -5,3 -10,3 -15,0 -4,-2 -7,-7 -7,-12z"/>
  <path class="fil0 str0" d="M9347 10389c0,0 0,-442 0,-442 0,-5 3,-10 7,-12 5,-3 10,-3 15,0 4,2 7,7 7,12 0,0 0,442 0,442 0,5 -3,10 -7,12 -5,3 -10,3 -15,0 -4,-2 -7,-7 -7,-12z"/>
  <path class="fil0 str0" d="M9469 10389c0,0 0,-442 0,-442 0,-5 3,-10 7,-12 5,-3 10,-3 15,0 4,2 7,7 7,12 0,0 0,442 0,442 0,5 -3,10 -7,12 -5,3 -10,3 -15,0 -4,-2 -7,-7 -7,-12z"/>
  <path class="fil0 str0" d="M9133 10575c0,0 -225,0 -225,0 -2,0 -4,2 -5,7 -1,4 -1,10 0,14 1,5 3,8 5,8 0,0 225,0 225,0 2,0 4,-3 5,-8 1,-4 1,-10 0,-14 -1,-5 -3,-7 -5,-7z"/>
  <path class="fil0 str0" d="M8997 10502c0,0 -94,79 -94,79 -1,1 0,4 2,8 3,3 6,8 9,11 4,3 6,4 7,4 0,0 94,-80 94,-80 1,0 0,-3 -2,-7 -3,-4 -6,-8 -10,-11 -3,-3 -5,-4 -6,-4z"/>
  <path class="fil0 str0" d="M9015 10654c0,0 -94,-79 -94,-79 -1,-1 -3,1 -6,4 -4,3 -7,7 -10,11 -2,4 -3,6 -2,7 0,0 94,79 94,79 1,1 3,-1 6,-4 4,-3 7,-7 10,-11 2,-4 3,-6 2,-7z"/>
  <path class="fil0 str0" d="M9267 10575c0,0 225,0 225,0 2,0 4,2 5,7 1,4 1,10 0,14 -1,5 -3,8 -5,8 0,0 -225,0 -225,0 -2,0 -4,-3 -5,-8 -1,-4 -1,-10 0,-14 1,-5 3,-7 5,-7z"/>
  <path class="fil0 str0" d="M9403 10502c0,0 94,79 94,79 1,1 0,4 -2,8 -3,3 -6,8 -9,11 -4,3 -6,4 -7,4 0,0 -94,-80 -94,-80 -1,0 0,-3 2,-7 3,-4 6,-8 10,-11 3,-3 5,-4 6,-4z"/>
  <path class="fil0 str0" d="M9385 10654c0,0 94,-79 94,-79 1,-1 3,1 7,4 3,3 6,7 9,11 2,4 3,6 2,7 0,0 -94,79 -94,79 -1,1 -3,-1 -6,-4 -4,-3 -7,-7 -10,-11 -2,-4 -3,-6 -2,-7z"/>
  <path class="fil0 str0" d="M7845 11497c5,-2 10,-2 15,1 4,2 6,7 6,13 0,5 -3,9 -8,12 -31,15 -50,47 -50,82 0,34 19,66 50,81 5,3 8,7 8,13 0,5 -2,10 -6,13 -5,2 -10,3 -15,0 -40,-20 -66,-62 -66,-107 0,-46 26,-87 66,-108z"/>
  <path class="fil0 str0" d="M7955 11712c-5,3 -10,2 -15,0 -4,-3 -6,-8 -6,-13 0,-6 3,-10 8,-13 31,-15 50,-47 50,-82 0,-34 -19,-66 -50,-81 -5,-3 -8,-7 -8,-12 0,-6 2,-11 6,-13 5,-3 10,-3 15,-1 40,20 66,62 66,107 0,46 -26,88 -66,108z"/>
  <path class="fil0 str0" d="M8098 11558c1,5 0,10 -4,14 -4,3 -9,4 -14,3 -5,-2 -9,-6 -10,-11 -20,-78 -91,-133 -172,-132 -81,1 -150,53 -168,132 -1,5 -5,9 -10,11 -5,1 -10,0 -14,-3 -4,-4 -5,-9 -4,-14 21,-92 102,-158 196,-159 94,-1 177,67 200,159z"/>
  <path class="fil0 str0" d="M7730 11645c-1,-5 -5,-9 -10,-11 -5,-1 -10,0 -14,4 -4,3 -5,8 -4,13 23,92 106,156 200,155 95,-1 175,-62 196,-155 1,-5 0,-10 -4,-13 -4,-4 -9,-5 -14,-4 -5,2 -9,6 -10,11 -18,78 -87,135 -168,136 -81,1 -152,-58 -172,-136z"/>
  <path class="fil0 str0" d="M7522 11619c0,0 77,0 77,0 5,0 10,-3 13,-7 2,-5 2,-10 0,-15 -3,-4 -8,-7 -13,-7 0,0 -77,0 -77,0 -5,0 -10,3 -12,7 -3,5 -3,10 0,15 2,4 7,7 12,7z"/>
  <path class="fil0 str0" d="M7643 11882c0,0 54,-54 54,-54 4,-4 5,-9 4,-14 -1,-5 -5,-9 -10,-11 -5,-1 -10,0 -14,4 0,0 -54,54 -54,54 -4,4 -6,9 -4,14 1,5 5,9 10,11 5,1 10,0 14,-4z"/>
  <path class="fil0 str0" d="M7914 11982c0,0 0,-76 0,-76 0,-6 -2,-10 -7,-13 -4,-3 -10,-3 -14,0 -5,3 -8,7 -8,13 0,0 0,76 0,76 0,6 3,10 8,13 4,3 10,3 14,0 5,-3 7,-7 7,-13z"/>
  <path class="fil0 str0" d="M8177 11861c0,0 -54,-54 -54,-54 -4,-4 -9,-5 -14,-4 -5,2 -9,6 -10,11 -2,5 0,10 4,14 0,0 54,54 54,54 4,4 9,5 14,4 5,-2 9,-6 10,-11 2,-5 0,-10 -4,-14z"/>
  <path class="fil0 str0" d="M8278 11590c0,0 -77,0 -77,0 -5,0 -10,3 -13,7 -2,5 -2,10 0,15 3,4 8,7 13,7 0,0 77,0 77,0 5,0 10,-3 12,-7 3,-5 3,-10 0,-15 -2,-4 -7,-7 -12,-7z"/>
  <path class="fil0 str0" d="M8157 11327c0,0 -54,54 -54,54 -4,4 -6,9 -4,14 1,5 5,9 10,11 5,1 10,0 14,-4 0,0 54,-54 54,-54 4,-4 6,-9 4,-14 -1,-5 -5,-9 -10,-11 -5,-1 -10,0 -14,4z"/>
  <path class="fil0 str0" d="M7885 11227c0,0 0,77 0,77 0,5 3,10 8,12 4,3 10,3 14,0 5,-2 7,-7 7,-12 0,0 0,-77 0,-77 0,-5 -2,-10 -7,-13 -4,-2 -10,-2 -14,0 -5,3 -8,8 -8,13z"/>
  <path class="fil0 str0" d="M7623 11348c0,0 54,54 54,54 4,4 9,5 14,4 5,-2 9,-6 10,-11 1,-5 0,-10 -4,-14 0,0 -54,-54 -54,-54 -4,-4 -9,-5 -14,-4 -5,2 -9,6 -10,11 -2,5 0,10 4,14z"/>
  <path class="fil0 str4" d="M11527 13923c0,0 0,380 0,380 0,0 0,-380 0,-380z"/>
  <path class="fil0 str4" d="M11800 13923c0,0 0,380 0,380 0,0 0,-380 0,-380z"/>
  <path class="fil0 str4" d="M12055 13923c0,0 0,380 0,380 0,0 0,-380 0,-380z"/>
  <path class="fil0 str4" d="M11440 13923c0,0 720,0 720,0 0,0 -720,0 -720,0z"/>
  <path class="fil1 str4" d="M11727 14486c0,0 0,-181 0,-181 0,0 146,0 146,0 0,0 0,181 0,181"/>
  <path class="fil1 str4" d="M11981 14486c0,0 0,-181 0,-181 0,0 147,0 147,0 0,0 0,181 0,181"/>
  <path class="fil1 str4" d="M11454 14486c0,0 0,-181 0,-181 0,0 147,0 147,0 0,0 0,181 0,181"/>
  <g id="_277493288">
   <path class="fil0 str4" d="M7596 13074c0,0 0,170 0,170 0,0 0,-170 0,-170z"/>
   <path class="fil0 str4" d="M7910 12565c0,0 0,679 0,679 0,0 0,-679 0,-679z"/>
   <path class="fil0 str4" d="M8195 13074c0,0 0,170 0,170 0,0 0,-170 0,-170z"/>
   <path class="fil0 str4" d="M7817 12565c0,0 186,0 186,0 0,0 -186,0 -186,0z"/>
   <path class="fil1 str4" d="M8116 13085c0,0 0,-206 0,-206 0,0 167,0 167,0 0,0 0,206 0,206"/>
   <path class="fil1 str4" d="M7517 13085c0,0 0,-206 0,-206 0,0 167,0 167,0 0,0 0,206 0,206"/>
   <path class="fil0 str4" d="M7580 13244c0,0 630,0 630,0 0,0 -630,0 -630,0z"/>
  </g>
  <g id="_277491272">
   <path class="fil0 str0" d="M13185 15778c0,0 -148,0 -148,0 -5,0 -10,-3 -13,-8 -2,-4 -2,-10 0,-14 3,-5 8,-7 13,-7 0,0 148,0 148,0 6,0 10,2 13,7 3,4 3,10 0,14 -3,5 -7,8 -13,8z"/>
   <path class="fil0 str0" d="M13148 15880c0,0 -37,0 -37,0 0,0 -37,0 -37,0 -5,0 -10,-3 -12,-7 -3,-5 -3,-10 0,-15 2,-4 7,-7 12,-7 0,0 37,0 37,0 0,0 37,0 37,0 5,0 10,3 13,7 2,5 2,10 0,15 -3,4 -8,7 -13,7z"/>
   <path class="fil0 str0" d="M13175 15671c2,-35 17,-69 43,-93 56,-59 54,-151 -3,-208 -58,-56 -150,-56 -208,1 -57,56 -59,149 -3,207 26,24 41,58 43,93 0,5 -2,10 -7,13 -4,3 -10,3 -14,0 -5,-2 -8,-7 -8,-12 -1,-28 -14,-54 -34,-74 -67,-69 -66,-180 3,-248 68,-68 179,-69 248,0 69,68 71,179 3,248 -20,20 -32,46 -34,74 0,5 -3,10 -8,12 -4,3 -10,3 -14,0 -4,-3 -7,-8 -7,-13z"/>
   <path class="fil0 str0" d="M12814 15296c0,0 64,64 64,64 4,3 9,5 14,3 5,-1 9,-5 11,-10 1,-5 0,-10 -4,-14 0,0 -64,-64 -64,-64 -4,-4 -9,-5 -14,-4 -5,2 -9,6 -10,11 -2,5 0,10 3,14z"/>
   <path class="fil0 str0" d="M13097 15144c0,0 0,90 0,90 0,5 2,10 7,13 4,2 10,2 14,0 5,-3 8,-8 8,-13 0,0 0,-90 0,-90 0,-6 -3,-10 -8,-13 -4,-3 -10,-3 -14,0 -5,3 -7,7 -7,13z"/>
   <path class="fil0 str0" d="M13408 15296c0,0 -64,64 -64,64 -4,3 -9,5 -14,3 -5,-1 -9,-5 -10,-10 -2,-5 0,-10 3,-14 0,0 64,-64 64,-64 4,-4 9,-5 14,-4 5,2 9,6 11,11 1,5 0,10 -4,14z"/>
   <path class="fil0 str0" d="M12722 15521c0,0 77,0 77,0 5,0 10,-3 13,-8 2,-4 2,-10 0,-14 -3,-5 -8,-7 -13,-7 0,0 -77,0 -77,0 -5,0 -10,2 -12,7 -3,4 -3,10 0,14 2,5 7,8 12,8z"/>
   <path class="fil0 str0" d="M13478 15492c0,0 -77,0 -77,0 -5,0 -10,2 -13,7 -2,4 -2,10 0,14 3,5 8,8 13,8 0,0 77,0 77,0 5,0 10,-3 12,-8 3,-4 3,-10 0,-14 -2,-5 -7,-7 -12,-7z"/>
   <path class="fil0 str0" d="M12856 15740c0,0 55,-55 55,-55 3,-3 5,-9 3,-14 -1,-5 -5,-9 -10,-10 -5,-1 -10,0 -14,4 0,0 -54,54 -54,54 -4,4 -5,9 -4,14 1,5 5,9 10,10 5,2 11,0 14,-3z"/>
   <path class="fil0 str0" d="M13391 15719c0,0 -55,-54 -55,-54 -3,-4 -9,-5 -14,-4 -5,1 -9,5 -10,10 -1,5 0,11 4,14 0,0 54,55 54,55 4,3 9,5 14,3 5,-1 9,-5 10,-10 2,-5 0,-10 -3,-14z"/>
  </g>
  <g id="_277490912">
   <path class="fil1 str6" d="M14399 11804c0,0 0,135 0,135"/>
   <path class="fil1 str6" d="M14568 11930c0,0 -67,-117 -67,-117"/>
   <path class="fil1 str6" d="M14299 11813c0,0 -67,117 -67,117"/>
   <path class="fil0 str0" d="M14503 11309c0,0 58,1 58,1 0,0 3,357 3,357 0,0 -325,3 -325,3 0,0 -3,-357 -3,-357 0,0 50,-2 50,-2 7,0 14,-4 17,-10 3,-6 3,-14 -1,-20 -3,-6 -10,-10 -17,-9 0,0 -88,2 -88,2 0,0 3,435 3,435 0,0 403,-3 403,-3 0,0 -3,-435 -3,-435 0,0 -97,-1 -97,-1 -7,0 -13,3 -17,9 -4,6 -4,14 0,20 3,6 10,10 17,10z"/>
  </g>
  <path class="fil0 str4" d="M6329 13888c0,0 0,422 0,422 0,0 0,-422 0,-422z"/>
  <path class="fil0 str4" d="M6600 13888c0,0 0,211 0,211 0,0 0,-211 0,-211z"/>
  <path class="fil0 str4" d="M6871 13888c0,0 0,466 0,466 0,0 0,-466 0,-466z"/>
  <path class="fil0 str4" d="M6200 13888c0,0 800,0 800,0 0,0 -800,0 -800,0z"/>
  <path class="fil1 str4" d="M6600 14090c-51,0 -92,41 -92,92 0,50 41,92 92,92 51,0 92,-41 92,-92 0,-51 -41,-92 -92,-92zm0 0l0 0m-92 92l0 0m92 92l0 0m92 -92l0 0m-92 -92l0 0m0 0c-51,0 -92,41 -92,92 0,51 41,92 92,92 51,0 92,-41 92,-92 0,-51 -41,-92 -92,-92zm0 0c-51,0 -92,41 -92,92 0,51 41,92 92,92 51,0 92,-41 92,-92 0,-51 -41,-92 -92,-92zm0 0c-51,0 -92,41 -92,92 0,51 41,92 92,92 51,0 92,-41 92,-92 0,-51 -41,-92 -92,-92zm0 0c-51,0 -92,41 -92,92 0,51 41,92 92,92 51,0 92,-41 92,-92 0,-51 -41,-92 -92,-92zm0 0c-51,0 -92,41 -92,92 0,51 41,92 92,92 51,0 92,-41 92,-92 0,-51 -41,-92 -92,-92zm0 0c-51,0 -92,41 -92,92 0,51 41,92 92,92 51,0 92,-41 92,-92 0,-51 -41,-92 -92,-92zm0 0c-51,0 -92,41 -92,92 0,51 41,92 92,92 51,0 92,-41 92,-92 0,-51 -41,-92 -92,-92zm0 0c-51,0 -92,41 -92,92 0,51 41,92 92,92 51,0 92,-41 92,-92 0,-51 -41,-92 -92,-92zm0 0c-51,0 -92,41 -92,92 0,51 41,92 92,92 51,0 92,-41 92,-92 0,-51 -41,-92 -92,-92zm0 0c-51,0 -92,41 -92,92 0,51 41,92 92,92 51,0 92,-41 92,-92 0,-51 -41,-92 -92,-92zm0 0c-51,0 -92,41 -92,92 0,51 41,92 92,92 51,0 92,-41 92,-92 0,-51 -41,-92 -92,-92zm0 0c-51,0 -92,41 -92,92 0,51 41,92 92,92 51,0 92,-41 92,-92 0,-51 -41,-92 -92,-92zm0 0c-51,0 -92,41 -92,92 0,51 41,92 92,92 51,0 92,-41 92,-92 0,-51 -41,-92 -92,-92zm0 0c-51,0 -92,41 -92,92 0,51 41,92 92,92 51,0 92,-41 92,-92 0,-51 -41,-92 -92,-92zm0 0c-51,0 -92,41 -92,92 0,51 41,92 92,92 51,0 92,-41 92,-92 0,-51 -41,-92 -92,-92zm0 0c-51,0 -92,41 -92,92 0,51 41,92 92,92 51,0 92,-41 92,-92 0,-51 -41,-92 -92,-92zm0 0c-51,0 -92,41 -92,92 0,51 41,92 92,92 51,0 92,-41 92,-92 0,-51 -41,-92 -92,-92zm0 0c-51,0 -92,41 -92,92 0,51 41,92 92,92 51,0 92,-41 92,-92 0,-51 -41,-92 -92,-92zm0 0c-51,0 -92,41 -92,92 0,51 41,92 92,92 51,0 92,-41 92,-92 0,-51 -41,-92 -92,-92zm0 0c-51,0 -92,41 -92,92 0,51 41,92 92,92 51,0 92,-41 92,-92 0,-51 -41,-92 -92,-92z"/>
  <path class="fil1 str4" d="M6329 14302c-50,0 -91,41 -91,92 0,50 41,91 91,91 51,0 92,-41 92,-91 0,-51 -41,-92 -92,-92zm0 0l0 0m-91 92l0 0m91 91l0 0m92 -91l0 0m-92 -92l0 0m0 0c-50,0 -91,41 -91,92 0,50 41,91 91,91 51,0 92,-41 92,-91 0,-51 -41,-92 -92,-92zm0 0c-50,0 -91,41 -91,92 0,50 41,91 91,91 51,0 92,-41 92,-91 0,-51 -41,-92 -92,-92zm0 0c-50,0 -91,41 -91,92 0,50 41,91 91,91 51,0 92,-41 92,-91 0,-51 -41,-92 -92,-92zm0 0c-50,0 -91,41 -91,92 0,50 41,91 91,91 51,0 92,-41 92,-91 0,-51 -41,-92 -92,-92zm0 0c-50,0 -91,41 -91,92 0,50 41,91 91,91 51,0 92,-41 92,-91 0,-51 -41,-92 -92,-92zm0 0c-50,0 -91,41 -91,92 0,50 41,91 91,91 51,0 92,-41 92,-91 0,-51 -41,-92 -92,-92zm0 0c-50,0 -91,41 -91,92 0,50 41,91 91,91 51,0 92,-41 92,-91 0,-51 -41,-92 -92,-92zm0 0c-50,0 -91,41 -91,92 0,50 41,91 91,91 51,0 92,-41 92,-91 0,-51 -41,-92 -92,-92zm0 0c-50,0 -91,41 -91,92 0,50 41,91 91,91 51,0 92,-41 92,-91 0,-51 -41,-92 -92,-92zm0 0c-50,0 -91,41 -91,92 0,50 41,91 91,91 51,0 92,-41 92,-91 0,-51 -41,-92 -92,-92zm0 0c-50,0 -91,41 -91,92 0,50 41,91 91,91 51,0 92,-41 92,-91 0,-51 -41,-92 -92,-92zm0 0c-50,0 -91,41 -91,92 0,50 41,91 91,91 51,0 92,-41 92,-91 0,-51 -41,-92 -92,-92zm0 0c-50,0 -91,41 -91,92 0,50 41,91 91,91 51,0 92,-41 92,-91 0,-51 -41,-92 -92,-92zm0 0c-50,0 -91,41 -91,92 0,50 41,91 91,91 51,0 92,-41 92,-91 0,-51 -41,-92 -92,-92zm0 0c-50,0 -91,41 -91,92 0,50 41,91 91,91 51,0 92,-41 92,-91 0,-51 -41,-92 -92,-92zm0 0c-50,0 -91,41 -91,92 0,50 41,91 91,91 51,0 92,-41 92,-91 0,-51 -41,-92 -92,-92zm0 0c-50,0 -91,41 -91,92 0,50 41,91 91,91 51,0 92,-41 92,-91 0,-51 -41,-92 -92,-92zm0 0c-50,0 -91,41 -91,92 0,50 41,91 91,91 51,0 92,-41 92,-91 0,-51 -41,-92 -92,-92zm0 0c-50,0 -91,41 -91,92 0,50 41,91 91,91 51,0 92,-41 92,-91 0,-51 -41,-92 -92,-92zm0 0c-50,0 -91,41 -91,92 0,50 41,91 91,91 51,0 92,-41 92,-91 0,-51 -41,-92 -92,-92z"/>
  <path class="fil1 str4" d="M6875 14338c-50,0 -91,41 -91,92 0,50 41,91 91,91 51,0 92,-41 92,-91 0,-51 -41,-92 -92,-92zm0 0l0 0m-91 92l0 0m91 91l0 0m92 -91l0 0m-92 -92l0 0m0 0c-50,0 -91,41 -91,92 0,50 41,91 91,91 51,0 92,-41 92,-91 0,-51 -41,-92 -92,-92zm0 0c-50,0 -91,41 -91,92 0,50 41,91 91,91 51,0 92,-41 92,-91 0,-51 -41,-92 -92,-92zm0 0c-50,0 -91,41 -91,92 0,50 41,91 91,91 51,0 92,-41 92,-91 0,-51 -41,-92 -92,-92zm0 0c-50,0 -91,41 -91,92 0,50 41,91 91,91 51,0 92,-41 92,-91 0,-51 -41,-92 -92,-92zm0 0c-50,0 -91,41 -91,92 0,50 41,91 91,91 51,0 92,-41 92,-91 0,-51 -41,-92 -92,-92zm0 0c-50,0 -91,41 -91,92 0,50 41,91 91,91 51,0 92,-41 92,-91 0,-51 -41,-92 -92,-92zm0 0c-50,0 -91,41 -91,92 0,50 41,91 91,91 51,0 92,-41 92,-91 0,-51 -41,-92 -92,-92zm0 0c-50,0 -91,41 -91,92 0,50 41,91 91,91 51,0 92,-41 92,-91 0,-51 -41,-92 -92,-92zm0 0c-50,0 -91,41 -91,92 0,50 41,91 91,91 51,0 92,-41 92,-91 0,-51 -41,-92 -92,-92zm0 0c-50,0 -91,41 -91,92 0,50 41,91 91,91 51,0 92,-41 92,-91 0,-51 -41,-92 -92,-92zm0 0c-50,0 -91,41 -91,92 0,50 41,91 91,91 51,0 92,-41 92,-91 0,-51 -41,-92 -92,-92zm0 0c-50,0 -91,41 -91,92 0,50 41,91 91,91 51,0 92,-41 92,-91 0,-51 -41,-92 -92,-92zm0 0c-50,0 -91,41 -91,92 0,50 41,91 91,91 51,0 92,-41 92,-91 0,-51 -41,-92 -92,-92zm0 0c-50,0 -91,41 -91,92 0,50 41,91 91,91 51,0 92,-41 92,-91 0,-51 -41,-92 -92,-92zm0 0c-50,0 -91,41 -91,92 0,50 41,91 91,91 51,0 92,-41 92,-91 0,-51 -41,-92 -92,-92zm0 0c-50,0 -91,41 -91,92 0,50 41,91 91,91 51,0 92,-41 92,-91 0,-51 -41,-92 -92,-92zm0 0c-50,0 -91,41 -91,92 0,50 41,91 91,91 51,0 92,-41 92,-91 0,-51 -41,-92 -92,-92zm0 0c-50,0 -91,41 -91,92 0,50 41,91 91,91 51,0 92,-41 92,-91 0,-51 -41,-92 -92,-92zm0 0c-50,0 -91,41 -91,92 0,50 41,91 91,91 51,0 92,-41 92,-91 0,-51 -41,-92 -92,-92zm0 0c-50,0 -91,41 -91,92 0,50 41,91 91,91 51,0 92,-41 92,-91 0,-51 -41,-92 -92,-92z"/>
  <g id="_275963040">
   <path class="fil1 str4" d="M4876 14148c0,-200 162,-362 362,-362 109,0 207,48 273,124"/>
   <path class="fil1 str4" d="M4826 14423c0,0 0,-275 0,-275 0,0 100,0 100,0 0,0 0,275 0,275"/>
   <path class="fil1 str4" d="M5297 14147c0,-118 95,-214 213,-214 118,0 213,96 213,214"/>
   <path class="fil1 str4" d="M5248 14423c0,0 0,-275 0,-275 0,0 100,0 100,0 0,0 0,275 0,275"/>
   <path class="fil1 str4" d="M5674 14423c0,0 0,-275 0,-275 0,0 100,0 100,0 0,0 0,275 0,275"/>
  </g>
  <g id="_275962560">
   <path class="fil0 str4" d="M11494 12985c0,0 0,292 0,292 0,0 0,-292 0,-292z"/>
   <path class="fil0 str4" d="M11962 12854c0,0 0,277 0,277 0,0 0,-277 0,-277z"/>
   <path class="fil1 str4" d="M11832 12871c0,0 0,-338 0,-338 0,0 274,0 274,0 0,0 0,338 0,338"/>
   <path class="fil0 str4" d="M11494 13131c0,0 492,0 492,0 0,0 -492,0 -492,0z"/>
  </g>
  <g id="_275962464">
   <path class="fil1 str4" d="M14432 8885c0,0 308,0 308,0 28,0 50,26 50,58 0,0 0,198 0,198 0,33 -22,59 -50,59 0,0 -680,0 -680,0 -28,0 -50,-26 -50,-59 0,0 0,-198 0,-198 0,-32 22,-58 50,-58 0,0 46,0 46,0"/>
   <path class="fil1 str4" d="M14273 8809c-61,0 -110,49 -110,110 0,61 49,110 110,110 61,0 110,-49 110,-110 0,-61 -49,-110 -110,-110zm0 0l0 0m-110 110l0 0m110 110l0 0m110 -110l0 0m-110 -110l0 0m0 0c-61,0 -110,49 -110,110 0,61 49,110 110,110 61,0 110,-49 110,-110 0,-61 -49,-110 -110,-110zm0 0c-61,0 -110,49 -110,110 0,61 49,110 110,110 61,0 110,-49 110,-110 0,-61 -49,-110 -110,-110zm0 0c-61,0 -110,49 -110,110 0,61 49,110 110,110 61,0 110,-49 110,-110 0,-61 -49,-110 -110,-110zm0 0c-61,0 -110,49 -110,110 0,61 49,110 110,110 61,0 110,-49 110,-110 0,-61 -49,-110 -110,-110zm0 0c-61,0 -110,49 -110,110 0,61 49,110 110,110 61,0 110,-49 110,-110 0,-61 -49,-110 -110,-110zm0 0c-61,0 -110,49 -110,110 0,61 49,110 110,110 61,0 110,-49 110,-110 0,-61 -49,-110 -110,-110zm0 0c-61,0 -110,49 -110,110 0,61 49,110 110,110 61,0 110,-49 110,-110 0,-61 -49,-110 -110,-110zm0 0c-61,0 -110,49 -110,110 0,61 49,110 110,110 61,0 110,-49 110,-110 0,-61 -49,-110 -110,-110zm0 0c-61,0 -110,49 -110,110 0,61 49,110 110,110 61,0 110,-49 110,-110 0,-61 -49,-110 -110,-110zm0 0c-61,0 -110,49 -110,110 0,61 49,110 110,110 61,0 110,-49 110,-110 0,-61 -49,-110 -110,-110zm0 0c-61,0 -110,49 -110,110 0,61 49,110 110,110 61,0 110,-49 110,-110 0,-61 -49,-110 -110,-110zm0 0c-61,0 -110,49 -110,110 0,61 49,110 110,110 61,0 110,-49 110,-110 0,-61 -49,-110 -110,-110zm0 0c-61,0 -110,49 -110,110 0,61 49,110 110,110 61,0 110,-49 110,-110 0,-61 -49,-110 -110,-110zm0 0c-61,0 -110,49 -110,110 0,61 49,110 110,110 61,0 110,-49 110,-110 0,-61 -49,-110 -110,-110zm0 0c-61,0 -110,49 -110,110 0,61 49,110 110,110 61,0 110,-49 110,-110 0,-61 -49,-110 -110,-110zm0 0c-61,0 -110,49 -110,110 0,61 49,110 110,110 61,0 110,-49 110,-110 0,-61 -49,-110 -110,-110zm0 0c-61,0 -110,49 -110,110 0,61 49,110 110,110 61,0 110,-49 110,-110 0,-61 -49,-110 -110,-110zm0 0c-61,0 -110,49 -110,110 0,61 49,110 110,110 61,0 110,-49 110,-110 0,-61 -49,-110 -110,-110zm0 0c-61,0 -110,49 -110,110 0,61 49,110 110,110 61,0 110,-49 110,-110 0,-61 -49,-110 -110,-110zm0 0c-61,0 -110,49 -110,110 0,61 49,110 110,110 61,0 110,-49 110,-110 0,-61 -49,-110 -110,-110z"/>
   <path class="fil1 str4" d="M14510 8964c0,0 0,150 0,150"/>
   <path class="fil1 str4" d="M14590 8964c0,0 0,150 0,150"/>
   <path class="fil1 str4" d="M14670 8964c0,0 0,150 0,150"/>
  </g>
  <circle class="fil0 str7" cx="7899" cy="8720" r="40"/>
  <g id="_274993664">
   <line class="fil2 str8" x1="5456" y1="7980" x2="5507" y2= "8068" />
   <path class="fil2 str8" d="M5507 8067c2,4 5,7 6,11"/>
   <path class="fil2 str8" d="M5513 8078c0,3 -2,5 -4,8"/>
   <path class="fil2 str8" d="M5509 8086c-2,4 -5,7 -9,10"/>
   <path class="fil2 str8" d="M5500 8096c-2,2 -5,3 -9,4"/>
   <path class="fil2 str8" d="M5491 8100c-5,0 -9,-3 -14,-4"/>
   <line class="fil2 str8" x1="5477" y1="8096" x2="5474" y2= "8095" />
   <path class="fil2 str8" d="M5475 8095c-9,-3 -16,-9 -24,-13"/>
   <line class="fil2 str8" x1="5451" y1="8082" x2="5446" y2= "8079" />
   <path class="fil2 str8" d="M5446 8079c-9,-5 -19,-8 -27,-13"/>
   <path class="fil2 str8" d="M5419 8066c-4,-3 -7,-6 -11,-9"/>
   <line class="fil2 str8" x1="5408" y1="8057" x2="5405" y2= "8055" />
   <path class="fil2 str8" d="M5406 8055c-9,-8 -19,-16 -28,-25"/>
   <path class="fil2 str8" d="M5378 8030c-8,-8 -16,-17 -24,-26"/>
   <polyline class="fil2 str8" points="5354,8004 5319,7965 5236,7881 "/>
   <path class="fil2 str8" d="M5236 7881c-10,-10 -19,-21 -30,-30"/>
   <path class="fil2 str8" d="M5206 7851c-17,-13 -37,-21 -56,-32"/>
   <line class="fil2 str8" x1="5150" y1="7819" x2="5143" y2= "7815" />
   <path class="fil2 str8" d="M5143 7815c-35,-18 -71,-34 -107,-51"/>
   <line class="fil2 str8" x1="5036" y1="7764" x2="4971" y2= "7726" />
   <path class="fil2 str8" d="M4971 7726c-9,-5 -19,-10 -28,-16"/>
   <path class="fil2 str8" d="M4943 7710c-14,-9 -28,-19 -40,-30"/>
   <path class="fil2 str8" d="M4903 7680c-6,-6 -12,-12 -16,-19"/>
   <path class="fil2 str8" d="M4887 7661c-4,-8 -8,-16 -8,-24"/>
   <path class="fil2 str8" d="M4879 7637c0,-5 2,-10 4,-15"/>
   <path class="fil2 str8" d="M4883 7622c2,-4 4,-9 7,-13"/>
   <path class="fil2 str8" d="M4890 7609c3,-3 8,-6 12,-9"/>
   <path class="fil2 str8" d="M4902 7600c9,-4 19,-6 29,-7"/>
   <line class="fil2 str8" x1="4931" y1="7593" x2="4983" y2= "7593" />
   <path class="fil2 str8" d="M4984 7593c6,0 13,1 19,2"/>
   <line class="fil2 str8" x1="5003" y1="7595" x2="5023" y2= "7598" />
   <path class="fil2 str8" d="M5023 7598c6,1 12,0 17,0"/>
   <line class="fil2 str8" x1="5040" y1="7598" x2="5055" y2= "7598" />
   <path class="fil2 str8" d="M5055 7598c7,0 14,1 20,2"/>
   <path class="fil2 str8" d="M5075 7600c10,3 19,8 28,12"/>
   <path class="fil2 str8" d="M5103 7612c9,3 17,6 26,10"/>
   <path class="fil2 str8" d="M5129 7622c14,7 27,16 41,24"/>
   <path class="fil2 str8" d="M5170 7646c19,10 38,19 58,29"/>
   <polyline class="fil2 str8" points="5228,7675 5286,7704 5456,7794 5496,7815 5513,7824 "/>
   <path class="fil2 str8" d="M5514 7824c26,14 51,31 78,45"/>
   <polyline class="fil2 str8" points="5591,7869 5637,7891 5652,7896 "/>
   <path class="fil2 str8" d="M5652 7895c3,1 5,2 8,2"/>
   <path class="fil2 str8" d="M5660 7897c3,-1 4,-4 7,-6"/>
   <path class="fil2 str8" d="M5667 7891c16,-11 34,-20 52,-30"/>
   <path class="fil2 str8" d="M5719 7861c19,-10 39,-19 58,-29"/>
   <line class="fil2 str8" x1="5777" y1="7832" x2="5826" y2= "7808" />
   <path class="fil2 str8" d="M5826 7808c7,-3 13,-7 19,-10"/>
   <path class="fil2 str8" d="M5845 7798c4,-1 8,-1 12,-2"/>
   <path class="fil2 str8" d="M5857 7796c3,0 5,-1 8,0"/>
   <path class="fil2 str8" d="M5865 7796c4,1 8,5 12,7"/>
   <line class="fil2 str8" x1="5877" y1="7804" x2="5897" y2= "7815" />
   <path class="fil2 str8" d="M5897 7815c4,3 8,6 11,9"/>
   <path class="fil2 str8" d="M5908 7824c2,2 3,4 4,7"/>
   <path class="fil2 str8" d="M5912 7831c1,4 1,9 0,14"/>
   <path class="fil2 str8" d="M5912 7845c-2,6 -5,12 -9,18"/>
   <path class="fil2 str8" d="M5903 7863c-4,6 -10,11 -15,17"/>
   <polyline class="fil2 str8" points="5888,7880 5794,7990 5781,8010 5779,8012 5779,8016 5782,8019 5788,8022 "/>
   <path class="fil2 str8" d="M5788 8022c6,3 12,7 18,11"/>
   <path class="fil2 str8" d="M5806 8033c4,4 9,7 12,12"/>
   <path class="fil2 str8" d="M5818 8045c2,4 3,8 3,12"/>
   <path class="fil2 str8" d="M5821 8057c-1,5 -5,11 -9,15"/>
   <path class="fil2 str8" d="M5812 8072c-2,2 -6,5 -10,6"/>
   <path class="fil2 str8" d="M5802 8078c-6,1 -12,0 -18,0"/>
   <path class="fil2 str8" d="M5784 8078c-9,-2 -18,-5 -27,-8"/>
   <polyline class="fil2 str8" points="5757,8070 5751,8069 5682,8044 "/>
   <path class="fil2 str8" d="M5682 8044c-13,-5 -27,-10 -41,-15"/>
   <line class="fil2 str8" x1="5641" y1="8030" x2="5621" y2= "8024" />
   <path class="fil2 str8" d="M5622 8024c-40,-13 -78,-31 -118,-44"/>
   <path class="fil2 str8" d="M5504 7980c-19,-6 -40,-12 -58,-16"/>
   <path class="fil2 str8" d="M5446 7964c-6,-1 7,11 10,16"/>
  </g>
  <g id="_276574008">
   <path class="fil2 str8" d="M7715 7784c60,-12 118,-25 176,-40"/>
   <path class="fil2 str8" d="M7891 7744c-90,-8 -180,-13 -271,-12"/>
   <line class="fil2 str8" x1="7620" y1="7732" x2="7583" y2= "7739" />
   <path class="fil2 str8" d="M7584 7740c-35,7 -68,19 -100,35"/>
   <path class="fil2 str8" d="M7484 7775c37,12 76,17 115,14"/>
   <path class="fil2 str8" d="M7599 7789c39,0 78,-2 116,-5"/>
   <path class="fil2 str8" d="M7400 7844c-50,0 -91,41 -91,91"/>
   <path class="fil2 str8" d="M7309 7935c0,51 41,92 91,92"/>
   <path class="fil2 str8" d="M7400 8027c51,0 92,-41 92,-92"/>
   <path class="fil2 str8" d="M7492 7935c0,-50 -41,-91 -92,-91"/>
   <path class="fil2 str8" d="M8087 7773c-69,0 -125,56 -125,124"/>
   <path class="fil2 str8" d="M7962 7897c0,69 56,125 125,125"/>
   <path class="fil2 str8" d="M8087 8022c69,0 124,-56 124,-125"/>
   <path class="fil2 str8" d="M8211 7897c0,-68 -55,-124 -124,-124"/>
   <path class="fil2 str8" d="M7470 7782c-14,0 -28,0 -41,0"/>
   <path class="fil2 str8" d="M7429 7782c-20,1 -40,2 -59,6"/>
   <path class="fil2 str8" d="M7370 7788c-12,3 -24,8 -36,14"/>
   <path class="fil2 str8" d="M7334 7802c-7,3 -14,6 -20,11"/>
   <path class="fil2 str8" d="M7314 7813c-2,2 -3,6 -5,9"/>
   <path class="fil2 str8" d="M7309 7822c-5,6 -11,12 -17,17"/>
   <path class="fil2 str8" d="M7292 7839c-9,8 -19,15 -28,22"/>
   <path class="fil2 str8" d="M7264 7861c-13,8 -25,18 -39,22"/>
   <path class="fil2 str8" d="M7225 7883c-12,4 -27,-1 -39,3"/>
   <path class="fil2 str8" d="M7186 7886c-4,1 -6,4 -9,6"/>
   <line class="fil2 str8" x1="7177" y1="7892" x2="7166" y2= "7903" />
   <path class="fil2 str8" d="M7166 7902c-3,4 -8,7 -9,12"/>
   <line class="fil2 str8" x1="7156" y1="7914" x2="7156" y2= "7918" />
   <path class="fil2 str8" d="M7157 7918c1,6 4,11 7,16"/>
   <path class="fil2 str8" d="M7164 7934c4,7 11,12 14,19"/>
   <path class="fil2 str8" d="M7178 7953c0,2 0,4 0,6"/>
   <path class="fil2 str8" d="M7178 7959c0,4 -3,9 0,12"/>
   <path class="fil2 str8" d="M7178 7971c0,1 2,1 3,2"/>
   <path class="fil2 str8" d="M7181 7973c7,4 13,10 20,12"/>
   <path class="fil2 str8" d="M7201 7985c21,5 32,6 48,7"/>
   <line class="fil2 str8" x1="7249" y1="7992" x2="7255" y2= "7992" />
   <path class="fil2 str8" d="M7256 7992c18,0 37,3 55,0"/>
   <path class="fil2 str8" d="M7311 7992c-10,-16 -16,-36 -16,-55"/>
   <path class="fil2 str8" d="M7402 7830c-59,0 -107,48 -107,107"/>
   <path class="fil2 str8" d="M7508 7937c0,-59 -48,-107 -106,-107"/>
   <path class="fil2 str8" d="M7508 7937c0,11 -2,23 -5,33"/>
   <path class="fil2 str8" d="M7503 7970c-1,2 -4,17 -3,18"/>
   <path class="fil2 str8" d="M7500 7988c3,3 8,1 11,0"/>
   <path class="fil2 str8" d="M7511 7988c19,-2 36,-8 54,-11"/>
   <path class="fil2 str8" d="M7565 7977c32,-5 65,-9 97,-12"/>
   <path class="fil2 str8" d="M7662 7965c31,-3 61,-7 92,-7"/>
   <path class="fil2 str8" d="M7754 7958c44,0 89,8 134,9"/>
   <path class="fil2 str8" d="M7888 7967c25,1 48,3 75,0"/>
   <path class="fil2 str8" d="M7963 7967c4,0 -4,-8 -5,-12"/>
   <path class="fil2 str8" d="M7958 7955c-6,-13 -9,-26 -11,-40"/>
   <path class="fil2 str8" d="M7947 7915c-2,-12 -1,-25 0,-38"/>
   <path class="fil2 str8" d="M7947 7877c1,-9 4,-17 5,-26"/>
   <path class="fil2 str8" d="M7952 7851c29,-84 134,-127 217,-73"/>
   <path class="fil2 str8" d="M8169 7778c-12,-14 -27,-25 -44,-30"/>
   <polyline class="fil2 str8" points="8125,7748 8138,7698 8181,7681 8044,7691 8032,7714 8077,7709 8057,7737 7997,7737 7922,7745 7812,7776 7666,7800 7591,7800 7541,7797 7483,7789 7470,7783 "/>
  </g>
 </g>
</svg>
