<svg width="35" height="35" viewBox="0 0 35 35" fill="none" xmlns="http://www.w3.org/2000/svg">
<path d="M26.698 6.43678C25.5643 6.43678 24.6499 7.3511 24.6499 8.48485C24.6499 9.6186 25.5643 10.5329 26.698 10.5329C27.8318 10.5329 28.7461 9.6186 28.7461 8.48485C28.7461 7.3511 27.8318 6.43678 26.698 6.43678ZM17.5549 9.07001C12.8004 9.07001 8.92372 12.9467 8.92372 17.7012C8.92372 22.4556 12.8004 26.3323 17.5549 26.3323C22.3093 26.3323 26.186 22.4556 26.186 17.7012C26.186 12.9467 22.3093 9.07001 17.5549 9.07001ZM17.5549 23.2602C14.4828 23.2602 12.0324 20.7733 12.0324 17.7377C12.0324 14.6656 14.5193 12.2153 17.5549 12.2153C20.627 12.2153 23.0773 14.7022 23.0773 17.7377C23.0773 20.7733 20.5904 23.2602 17.5549 23.2602ZM35 10.5329C35 4.71787 30.2821 0 24.4671 0H10.5329C4.71787 0 0 4.71787 0 10.5329V24.4671C0 30.2821 4.71787 35 10.5329 35H24.4305C30.2456 35 34.9634 30.2821 34.9634 24.4671L35 10.5329ZM31.6719 24.4305C31.6719 28.4169 28.4169 31.6719 24.4305 31.6719H10.5329C6.5465 31.6719 3.29154 28.4169 3.29154 24.4305V10.5329C3.29154 6.50993 6.50993 3.29154 10.5329 3.29154H24.4305C28.4169 3.29154 31.6719 6.5465 31.6719 10.5329V24.4305Z" fill="#1F252B"/>
</svg>
